<svg width="35" height="28" viewBox="0 0 35 28" fill="none" xmlns="http://www.w3.org/2000/svg">
<path d="M2.688 10.8475L1.34399 12.1915L0 10.8475L1.34399 9.50353L2.688 10.8475ZM35 26.0532C35 27.1029 34.1491 27.9539 33.0993 27.9539C32.0495 27.9539 31.1986 27.1029 31.1986 26.0532H35ZM10.8475 21.6951L1.34399 12.1915L4.03201 9.50353L13.5355 19.0071L10.8475 21.6951ZM1.34399 9.50353L10.8475 0L13.5355 2.68802L4.03201 12.1915L1.34399 9.50353ZM2.688 8.94683H21.6951V12.7482H2.688V8.94683ZM35 22.2518V26.0532H31.1986V22.2518H35ZM21.6951 8.94683C29.0432 8.94683 35 14.9036 35 22.2518H31.1986C31.1986 17.0032 26.9437 12.7482 21.6951 12.7482V8.94683Z" fill="black"/>
</svg>
