<svg width="60" height="61" viewBox="0 0 60 61" fill="none" xmlns="http://www.w3.org/2000/svg">
<g clip-path="url(#clip0_57_39)">
<path d="M28.6486 31.6063C29.7221 32.5941 32.1122 34.7933 28.647 31.6048C27.9514 30.9647 28.1662 31.1624 28.6461 31.6039C26.3966 29.5343 23.9171 27.9611 21.664 27.174C19.1255 26.2874 17.0926 26.4887 15.9404 27.741C14.788 28.9932 14.7562 31.0357 15.8506 33.492C16.822 35.6721 18.5961 38.0129 20.8458 40.083C23.0956 42.153 25.5754 43.7266 27.8288 44.5138C27.972 44.5637 28.1132 44.6095 28.253 44.6526L4.49481 57.824L13.7295 37.1703C13.964 36.6458 13.7289 36.0302 13.2044 35.7957C12.6794 35.5614 12.0643 35.7962 11.8298 36.3209L2.0197 58.2614C1.44384 59.5405 3.04989 61.0048 4.26747 60.3295L32.3257 44.7742C32.825 44.5333 33.1851 44.311 33.5525 43.9467C35.8842 41.6346 33.6676 36.2253 28.6486 31.6063ZM32.0209 42.538C31.3164 43.4422 29.4128 42.8629 28.5149 42.5492C26.5236 41.8536 24.3004 40.434 22.2548 38.5517C20.2093 36.6697 18.6099 34.5718 17.7513 32.6453C17.0372 31.0425 16.9326 29.736 17.4715 29.1503C17.7428 28.8554 18.2095 28.708 18.8176 28.708C19.4174 28.708 20.1551 28.8516 20.9776 29.1389C22.9689 29.8345 25.1921 31.2541 27.2377 33.1364C31.745 37.2837 32.9651 41.3257 32.0209 42.538Z" fill="#0079C1"/>
<path d="M24.6972 25.1756C24.8934 25.3438 24.2609 24.8015 24.6972 25.1756Z" fill="#0079C1"/>
<path d="M30.0092 4.2302C30.4746 3.89293 30.5784 3.24243 30.2411 2.77696C29.9037 2.31161 29.2535 2.20801 28.7879 2.54505C26.2265 4.40141 24.9496 6.31719 24.9928 8.23953C25.0238 9.63241 25.7029 10.4834 26.3598 11.3064C26.9262 12.0162 27.5119 12.7502 27.7988 14.0083C28.2381 15.9349 27.6692 17.6459 27.1673 19.1555C26.6122 20.8254 25.7432 22.3572 24.5846 23.7085C24.2104 24.1449 24.2608 24.8017 24.6971 25.1758C25.1274 25.5449 25.7951 25.4935 26.1642 25.0632C27.4994 23.506 28.5012 21.7394 29.142 19.8121C29.6712 18.22 30.3963 16.0395 29.8277 13.5456C29.4349 11.8243 28.6317 10.8175 27.9862 10.0086C27.3964 9.26937 27.0878 8.85312 27.0732 8.19324C27.0399 6.70027 28.6515 5.2141 30.0092 4.2302Z" fill="#0079C1"/>
<path d="M39.3506 8.78552C39.3499 8.78552 39.3493 8.78552 39.3488 8.78552C38.7748 8.78552 38.3092 9.25029 38.3083 9.82427C38.3054 11.5456 37.9648 13.2045 37.2959 14.7547C36.0114 17.7318 33.8637 19.5233 32.288 20.502C31.8 20.8053 31.6502 21.4469 31.9534 21.9351C32.1505 22.2522 32.4904 22.4266 32.8382 22.4266C33.0256 22.4266 33.2155 22.376 33.3863 22.2698C35.2147 21.134 37.7085 19.0512 39.2068 15.5792C39.9882 13.7681 40.386 11.833 40.3892 9.82767C40.3903 9.2531 39.9251 8.78646 39.3506 8.78552Z" fill="#0079C1"/>
<path d="M53.9045 14.1858C53.4026 13.9054 52.7688 14.0847 52.4884 14.5859C51.0683 17.1244 49.262 18.8956 47.1198 19.8503C45.5996 20.5279 44.3389 20.6137 43.0043 20.7043C41.5674 20.8021 40.0813 20.903 38.4222 21.784C35.7913 23.1806 33.8708 25.9798 32.7136 30.1041C32.5662 30.6298 32.8643 31.1958 33.3815 31.3708C33.9391 31.5593 34.5583 31.2332 34.7172 30.6665C35.7145 27.1114 37.2893 24.7414 39.3978 23.6221C40.6649 22.9492 41.8144 22.8712 43.1453 22.7807C44.5346 22.6863 46.1091 22.5793 47.9667 21.7513C50.5281 20.6097 52.6604 18.5409 54.3043 15.6022C54.585 15.1005 54.4058 14.4664 53.9045 14.1858Z" fill="#0079C1"/>
<path d="M54.4267 33.5684C54.124 33.0797 53.4823 32.9296 52.9943 33.2325C51.338 34.2597 49.8245 34.6336 48.497 34.3439C47.6656 34.1623 47.162 33.7815 46.5244 33.2993C46.021 32.9186 45.4505 32.4872 44.6738 32.1417C42.3303 31.0996 39.3543 31.4235 35.8283 33.1043C35.3096 33.3517 35.0895 33.9727 35.3368 34.4913C35.584 35.0099 36.2047 35.2299 36.7238 34.9828C39.6756 33.5754 42.066 33.2595 43.8281 34.043C44.3859 34.2911 44.8148 34.6156 45.269 34.959C45.9748 35.4929 46.7748 36.0981 48.0531 36.377C48.4937 36.4731 48.9428 36.5213 49.4001 36.5213C50.8881 36.5213 52.4603 36.0126 54.0911 35.0009C54.5795 34.6981 54.7298 34.0566 54.4267 33.5684Z" fill="#0079C1"/>
<path d="M56.8647 23.6496C56.7817 23.0827 56.2569 22.6909 55.6898 22.7704C55.8141 22.7522 55.8762 22.7431 55.6845 22.7708C54.9763 22.8744 55.4208 22.8096 55.6707 22.7732C54.5798 22.9342 53.5286 23.261 52.5462 23.7449C51.1799 24.4181 49.9458 25.4088 48.977 26.6101C48.6474 27.0189 48.6797 27.6291 49.0519 27.9999C49.4838 28.4299 50.2144 28.3909 50.5969 27.9165C51.3771 26.949 52.3693 26.1519 53.4662 25.6116C54.2575 25.2216 55.1051 24.9587 55.9859 24.8298C56.5544 24.7465 56.948 24.2182 56.8647 23.6496Z" fill="#0079C1"/>
<path d="M43.5559 26.6561C42.9121 26.6561 42.3884 27.1799 42.3884 27.8236C42.3884 28.4675 42.9121 28.9912 43.5559 28.9912C44.1997 28.9912 44.7234 28.4675 44.7234 27.8236C44.7234 27.1798 44.1997 26.6561 43.5559 26.6561Z" fill="#0079C1"/>
<path d="M46.0075 11.621C45.3637 11.621 44.84 12.1447 44.84 12.7885C44.84 13.4322 45.3638 13.9559 46.0075 13.9559C46.6513 13.9559 47.175 13.4322 47.175 12.7885C47.175 12.1447 46.6513 11.621 46.0075 11.621Z" fill="#0079C1"/>
<path d="M37.1913 0.5C36.5475 0.5 36.0238 1.02371 36.0238 1.66754C36.0238 2.31125 36.5475 2.83496 37.1913 2.83496C37.8352 2.83496 38.3589 2.31125 38.3589 1.66754C38.3589 1.02371 37.8352 0.5 37.1913 0.5Z" fill="#0079C1"/>
<path d="M56.5066 7.88971C55.8628 7.88971 55.3391 8.41342 55.3391 9.05713C55.3391 9.70084 55.8629 10.2247 56.5068 10.2247C57.1506 10.2247 57.6743 9.70096 57.6743 9.05713C57.6742 8.41342 57.1505 7.88971 56.5066 7.88971Z" fill="#0079C1"/>
<path d="M49.3365 2.69635C48.6928 2.69635 48.1691 3.22006 48.1691 3.86389C48.1691 4.50771 48.6928 5.03142 49.3365 5.03142C49.9804 5.03142 50.5041 4.50771 50.5041 3.86389C50.5041 3.22006 49.9804 2.69635 49.3365 2.69635Z" fill="#0079C1"/>
<path d="M32.8373 6.79144C32.1935 6.79144 31.6697 7.31515 31.6697 7.95898C31.6697 8.60257 32.1935 9.1264 32.8373 9.1264C33.4811 9.1264 34.0048 8.60269 34.0048 7.95898C34.0049 7.31515 33.4812 6.79144 32.8373 6.79144Z" fill="#0079C1"/>
<path d="M56.9333 28.8112C56.2895 28.8112 55.7658 29.3349 55.7658 29.9786C55.7658 30.6224 56.2895 31.1461 56.9333 31.1461C57.5772 31.1461 58.1009 30.6224 58.1009 29.9786C58.101 29.3351 57.5773 28.8112 56.9333 28.8112Z" fill="#0079C1"/>
<path d="M22.6926 15.8613C22.0488 15.8613 21.5251 16.385 21.5251 17.0288C21.5251 17.6724 22.0488 18.1962 22.6926 18.1962C23.3363 18.1962 23.86 17.6725 23.86 17.0288C23.8602 16.385 23.3363 15.8613 22.6926 15.8613Z" fill="#0079C1"/>
<path d="M18.6846 41.3613C16.9006 41.3613 15.4492 42.8128 15.4492 44.5968C15.4492 46.3807 16.9006 47.8322 18.6846 47.8322C20.4685 47.8322 21.92 46.3807 21.92 44.5968C21.92 42.8128 20.4686 41.3613 18.6846 41.3613ZM18.6846 45.7512C18.048 45.7512 17.5302 45.2331 17.5302 44.5968C17.5302 43.9602 18.048 43.4423 18.6846 43.4423C19.3211 43.4423 19.839 43.9602 19.839 44.5968C19.839 45.2333 19.3211 45.7512 18.6846 45.7512Z" fill="#0079C1"/>
<path d="M13.3706 48.4467C13.0663 47.6379 12.4651 46.9959 11.678 46.6393C11.1541 46.4018 10.5377 46.6341 10.3008 47.1575C10.0636 47.681 10.2956 48.2977 10.819 48.5347C11.0998 48.6621 11.3142 48.891 11.4229 49.1796C11.5315 49.4682 11.5212 49.7818 11.3939 50.0627C11.1313 50.6423 10.4462 50.9001 9.86602 50.6377C9.34266 50.4005 8.72579 50.6325 8.48884 51.1559C8.25165 51.6792 8.48368 52.2958 9.00704 52.533C9.43911 52.7287 9.89169 52.8214 10.3378 52.8214C11.5695 52.8213 12.7488 52.1146 13.2894 50.9217C13.6458 50.1346 13.6748 49.2557 13.3706 48.4467Z" fill="#0079C1"/>
</g>
<defs>
<clipPath id="clip0_57_39">
<rect width="60" height="60" fill="white" transform="translate(0 0.5)"/>
</clipPath>
</defs>
</svg>
