<?xml version="1.0" encoding="UTF-8" standalone="no"?>
<!DOCTYPE svg PUBLIC "-//W3C//DTD SVG 1.1//EN" "http://www.w3.org/Graphics/SVG/1.1/DTD/svg11.dtd">
<svg xmlns="http://www.w3.org/2000/svg" version="1.1" viewBox="0 0 604 588">
<g stroke-width="2.00" fill="none" stroke-linecap="butt">
<path stroke="#80a9cb" vector-effect="non-scaling-stroke" d="
  M 271.70 340.53
  L 271.74 350.31
  A 0.70 0.68 89.6 0 0 272.42 351.00
  L 296.56 351.00
  A 0.69 0.69 45.0 0 0 297.25 350.31
  L 297.25 280.77
  A 0.71 0.70 90.0 0 0 296.55 280.06
  L 231.91 280.00
  A 0.65 0.64 -0.4 0 0 231.26 280.65
  L 231.48 306.50
  A 0.52 0.51 -0.6 0 0 232.00 307.00
  L 267.24 307.24
  Q 267.76 307.25 267.45 307.66
  Q 252.36 328.28 226.27 325.77
  Q 213.49 324.54 204.19 317.31
  Q 193.51 309.01 188.72 296.61
  Q 185.03 287.07 185.73 277.01
  Q 186.78 262.13 196.75 250.03
  Q 203.36 242.01 212.56 238.06
  Q 234.63 228.60 254.88 241.43
  Q 267.17 249.22 274.67 262.21
  A 0.50 0.50 -30.1 0 0 275.36 262.39
  L 295.94 250.04
  A 1.56 1.56 61.1 0 0 296.53 247.99
  Q 290.72 236.62 282.30 227.84
  Q 275.30 220.54 266.64 215.49
  Q 245.73 203.27 220.75 206.50
  Q 186.81 210.89 169.19 240.44
  Q 158.47 258.41 158.27 279.52
  Q 158.18 289.53 160.64 299.31
  Q 164.86 316.12 175.31 328.94
  Q 192.77 350.35 220.03 353.83
  Q 230.88 355.22 239.98 354.03
  Q 256.76 351.84 270.88 340.15
  Q 271.70 339.48 271.70 340.53"
/>
<path stroke="#80a9cb" vector-effect="non-scaling-stroke" d="
  M 336.40 308.28
  Q 335.62 307.25 336.92 307.25
  L 371.93 307.19
  A 0.53 0.52 1.1 0 0 372.46 306.69
  Q 373.07 294.20 372.45 280.70
  A 0.73 0.73 88.8 0 0 371.72 280.00
  L 306.91 280.00
  A 0.66 0.66 45.0 0 0 306.25 280.66
  L 306.25 350.07
  A 0.71 0.69 90.0 0 0 306.94 350.78
  L 330.95 350.99
  A 0.81 0.80 -90.0 0 0 331.75 350.18
  L 331.75 340.13
  Q 331.75 339.47 332.26 339.88
  Q 348.27 352.82 367.00 354.43
  Q 376.51 355.25 386.94 353.42
  Q 401.88 350.81 414.06 342.31
  Q 433.55 328.71 441.45 305.11
  Q 446.67 289.51 445.25 273.75
  Q 443.57 255.14 433.97 239.45
  Q 428.59 230.67 421.40 223.97
  Q 404.66 208.38 381.25 206.25
  Q 340.58 202.55 315.56 234.56
  Q 309.57 242.23 306.93 248.79
  A 0.59 0.59 26.3 0 0 307.18 249.52
  L 327.92 262.05
  A 0.92 0.90 -59.3 0 0 329.17 261.72
  Q 334.91 251.99 343.60 244.82
  Q 359.76 231.50 380.72 234.93
  Q 391.87 236.76 400.06 243.44
  Q 412.00 253.17 416.14 267.45
  Q 418.93 277.10 417.43 287.23
  Q 414.87 304.54 401.19 315.94
  Q 387.74 327.14 370.50 326.34
  Q 360.34 325.87 351.65 321.27
  Q 342.65 316.50 336.40 308.28"
/>
</g>
<path fill="#ffffff" d="
  M 17.21 245.40
  Q 28.16 223.58 34.31 213.81
  Q 42.46 200.88 50.67 187.99
  Q 56.03 179.59 61.86 171.40
  Q 82.62 142.21 92.81 128.56
  Q 133.18 74.53 182.57 28.71
  Q 190.24 21.60 196.93 16.38
  Q 205.04 10.06 212.31 5.31
  Q 215.70 3.10 219.95 1.89
  Q 222.94 1.04 228.14 0.67
  Q 252.60 -1.05 274.56 2.19
  Q 335.93 11.23 395.06 29.94
  Q 416.24 36.64 437.31 43.69
  Q 453.28 49.03 460.60 51.85
  Q 477.06 58.20 493.43 64.80
  Q 502.98 68.66 511.74 72.83
  Q 531.37 82.18 550.65 92.22
  Q 560.12 97.15 565.50 101.55
  Q 572.39 107.16 578.10 114.03
  Q 580.68 117.12 582.58 121.43
  Q 583.97 124.62 585.36 127.80
  Q 586.72 130.91 587.56 134.39
  Q 589.15 140.96 590.93 147.49
  Q 592.90 154.75 593.92 160.66
  Q 596.03 173.02 597.00 181.00
  Q 600.58 210.52 602.00 225.00
  Q 603.92 244.51 603.92 267.25
  Q 603.93 297.63 603.61 328.00
  Q 603.51 337.53 602.54 347.95
  Q 600.69 367.66 599.75 383.00
  Q 598.95 396.03 597.46 407.91
  Q 596.31 417.08 594.16 427.62
  Q 590.15 447.32 586.00 459.50
  Q 582.45 469.91 574.72 477.72
  Q 568.53 483.99 561.31 489.06
  Q 554.89 493.58 545.07 499.11
  Q 537.89 503.15 528.00 507.64
  Q 495.69 522.28 475.69 530.69
  Q 471.11 532.61 463.96 534.91
  Q 452.13 538.70 452.08 538.72
  Q 420.61 549.19 389.17 559.75
  Q 379.71 562.93 369.98 565.32
  Q 345.97 571.22 321.99 577.21
  Q 315.22 578.90 308.37 580.13
  Q 294.94 582.55 294.67 582.60
  Q 276.34 586.05 257.75 587.75
  Q 253.10 588.18 232.86 587.62
  Q 228.62 587.51 224.27 586.39
  Q 220.02 585.30 215.74 584.29
  Q 212.92 583.63 210.54 581.98
  Q 196.40 572.20 183.71 560.68
  Q 182.20 559.30 169.04 547.09
  Q 157.31 536.20 146.34 524.55
  Q 140.89 518.75 133.27 509.40
  Q 123.22 497.07 112.86 485.00
  Q 105.98 476.99 100.24 469.51
  Q 92.87 459.91 85.45 450.34
  Q 79.08 442.13 73.61 434.22
  Q 55.49 408.02 47.56 395.69
  Q 42.84 388.34 34.70 373.92
  Q 30.40 366.30 25.21 356.31
  Q 18.17 342.75 11.09 329.20
  Q 6.93 321.24 4.92 316.49
  Q 1.41 308.18 0.50 303.00
  Q 0.04 300.39 0.18 292.38
  Q 0.28 286.27 1.46 281.88
  Q 2.87 276.65 5.44 270.44
  Q 10.20 258.93 14.09 251.42
  Q 17.17 245.48 17.21 245.40
  Z
  M 271.70 340.53
  L 271.74 350.31
  A 0.70 0.68 89.6 0 0 272.42 351.00
  L 296.56 351.00
  A 0.69 0.69 45.0 0 0 297.25 350.31
  L 297.25 280.77
  A 0.71 0.70 90.0 0 0 296.55 280.06
  L 231.91 280.00
  A 0.65 0.64 -0.4 0 0 231.26 280.65
  L 231.48 306.50
  A 0.52 0.51 -0.6 0 0 232.00 307.00
  L 267.24 307.24
  Q 267.76 307.25 267.45 307.66
  Q 252.36 328.28 226.27 325.77
  Q 213.49 324.54 204.19 317.31
  Q 193.51 309.01 188.72 296.61
  Q 185.03 287.07 185.73 277.01
  Q 186.78 262.13 196.75 250.03
  Q 203.36 242.01 212.56 238.06
  Q 234.63 228.60 254.88 241.43
  Q 267.17 249.22 274.67 262.21
  A 0.50 0.50 -30.1 0 0 275.36 262.39
  L 295.94 250.04
  A 1.56 1.56 61.1 0 0 296.53 247.99
  Q 290.72 236.62 282.30 227.84
  Q 275.30 220.54 266.64 215.49
  Q 245.73 203.27 220.75 206.50
  Q 186.81 210.89 169.19 240.44
  Q 158.47 258.41 158.27 279.52
  Q 158.18 289.53 160.64 299.31
  Q 164.86 316.12 175.31 328.94
  Q 192.77 350.35 220.03 353.83
  Q 230.88 355.22 239.98 354.03
  Q 256.76 351.84 270.88 340.15
  Q 271.70 339.48 271.70 340.53
  Z
  M 336.40 308.28
  Q 335.62 307.25 336.92 307.25
  L 371.93 307.19
  A 0.53 0.52 1.1 0 0 372.46 306.69
  Q 373.07 294.20 372.45 280.70
  A 0.73 0.73 88.8 0 0 371.72 280.00
  L 306.91 280.00
  A 0.66 0.66 45.0 0 0 306.25 280.66
  L 306.25 350.07
  A 0.71 0.69 90.0 0 0 306.94 350.78
  L 330.95 350.99
  A 0.81 0.80 -90.0 0 0 331.75 350.18
  L 331.75 340.13
  Q 331.75 339.47 332.26 339.88
  Q 348.27 352.82 367.00 354.43
  Q 376.51 355.25 386.94 353.42
  Q 401.88 350.81 414.06 342.31
  Q 433.55 328.71 441.45 305.11
  Q 446.67 289.51 445.25 273.75
  Q 443.57 255.14 433.97 239.45
  Q 428.59 230.67 421.40 223.97
  Q 404.66 208.38 381.25 206.25
  Q 340.58 202.55 315.56 234.56
  Q 309.57 242.23 306.93 248.79
  A 0.59 0.59 26.3 0 0 307.18 249.52
  L 327.92 262.05
  A 0.92 0.90 -59.3 0 0 329.17 261.72
  Q 334.91 251.99 343.60 244.82
  Q 359.76 231.50 380.72 234.93
  Q 391.87 236.76 400.06 243.44
  Q 412.00 253.17 416.14 267.45
  Q 418.93 277.10 417.43 287.23
  Q 414.87 304.54 401.19 315.94
  Q 387.74 327.14 370.50 326.34
  Q 360.34 325.87 351.65 321.27
  Q 342.65 316.50 336.40 308.28
  Z"
/>
<path fill="#015396" d="
  M 271.70 340.53
  Q 271.70 339.48 270.88 340.15
  Q 256.76 351.84 239.98 354.03
  Q 230.88 355.22 220.03 353.83
  Q 192.77 350.35 175.31 328.94
  Q 164.86 316.12 160.64 299.31
  Q 158.18 289.53 158.27 279.52
  Q 158.47 258.41 169.19 240.44
  Q 186.81 210.89 220.75 206.50
  Q 245.73 203.27 266.64 215.49
  Q 275.30 220.54 282.30 227.84
  Q 290.72 236.62 296.53 247.99
  A 1.56 1.56 61.1 0 1 295.94 250.04
  L 275.36 262.39
  A 0.50 0.50 -30.1 0 1 274.67 262.21
  Q 267.17 249.22 254.88 241.43
  Q 234.63 228.60 212.56 238.06
  Q 203.36 242.01 196.75 250.03
  Q 186.78 262.13 185.73 277.01
  Q 185.03 287.07 188.72 296.61
  Q 193.51 309.01 204.19 317.31
  Q 213.49 324.54 226.27 325.77
  Q 252.36 328.28 267.45 307.66
  Q 267.76 307.25 267.24 307.24
  L 232.00 307.00
  A 0.52 0.51 -0.6 0 1 231.48 306.50
  L 231.26 280.65
  A 0.65 0.64 -0.4 0 1 231.91 280.00
  L 296.55 280.06
  A 0.71 0.70 -90.0 0 1 297.25 280.77
  L 297.25 350.31
  A 0.69 0.69 -45.0 0 1 296.56 351.00
  L 272.42 351.00
  A 0.70 0.68 89.6 0 1 271.74 350.31
  L 271.70 340.53
  Z"
/>
<path fill="#015396" d="
  M 336.40 308.28
  Q 342.65 316.50 351.65 321.27
  Q 360.34 325.87 370.50 326.34
  Q 387.74 327.14 401.19 315.94
  Q 414.87 304.54 417.43 287.23
  Q 418.93 277.10 416.14 267.45
  Q 412.00 253.17 400.06 243.44
  Q 391.87 236.76 380.72 234.93
  Q 359.76 231.50 343.60 244.82
  Q 334.91 251.99 329.17 261.72
  A 0.92 0.90 -59.3 0 1 327.92 262.05
  L 307.18 249.52
  A 0.59 0.59 26.3 0 1 306.93 248.79
  Q 309.57 242.23 315.56 234.56
  Q 340.58 202.55 381.25 206.25
  Q 404.66 208.38 421.40 223.97
  Q 428.59 230.67 433.97 239.45
  Q 443.57 255.14 445.25 273.75
  Q 446.67 289.51 441.45 305.11
  Q 433.55 328.71 414.06 342.31
  Q 401.88 350.81 386.94 353.42
  Q 376.51 355.25 367.00 354.43
  Q 348.27 352.82 332.26 339.88
  Q 331.75 339.47 331.75 340.13
  L 331.75 350.18
  A 0.81 0.80 -90.0 0 1 330.95 350.99
  L 306.94 350.78
  A 0.71 0.69 90.0 0 1 306.25 350.07
  L 306.25 280.66
  A 0.66 0.66 -45.0 0 1 306.91 280.00
  L 371.72 280.00
  A 0.73 0.73 88.8 0 1 372.45 280.70
  Q 373.07 294.20 372.46 306.69
  A 0.53 0.52 1.1 0 1 371.93 307.19
  L 336.92 307.25
  Q 335.62 307.25 336.40 308.28
  Z"
/>
</svg>
