<?xml version="1.0" encoding="UTF-8" standalone="no"?>
<!DOCTYPE svg PUBLIC "-//W3C//DTD SVG 1.1//EN" "http://www.w3.org/Graphics/SVG/1.1/DTD/svg11.dtd">
<svg xmlns="http://www.w3.org/2000/svg" version="1.1" viewBox="0 0 94 40">
<g stroke-width="2.00" fill="none" stroke-linecap="butt">
<path stroke="#004687" stroke-opacity="0.537" vector-effect="non-scaling-stroke" d="
  M 93.44 0.00
  Q 92.57 19.99 93.19 40.00"
/>
<path stroke="#004687" stroke-opacity="0.537" vector-effect="non-scaling-stroke" d="
  M 0.77 40.00
  Q 1.17 20.88 1.00 1.75
  Q 0.99 0.11 0.00 0.44"
/>
<path stroke="#80a5c7" vector-effect="non-scaling-stroke" d="
  M 37.87 27.45
  Q 32.54 33.84 26.02 31.81
  Q 20.54 30.11 18.00 24.50
  Q 15.39 18.75 18.81 13.38
  Q 21.87 8.56 27.11 7.79
  Q 34.14 6.74 39.59 14.04
  A 1.12 1.03 55.7 0 0 41.00 14.37
  L 45.09 11.80
  A 0.60 0.57 61.3 0 0 45.29 11.05
  Q 40.91 1.81 31.44 0.31
  Q 24.14 -0.84 18.57 3.02
  Q 13.70 6.40 11.31 12.91
  Q 7.96 22.07 12.82 30.11
  Q 16.96 36.96 23.71 38.87
  Q 31.11 40.96 38.86 35.91
  Q 39.27 35.65 39.27 36.15
  L 39.27 37.93
  A 0.55 0.53 0.6 0 0 39.81 38.46
  L 45.24 38.50
  A 0.50 0.50 89.4 0 0 45.74 37.99
  L 45.58 20.44
  A 0.52 0.49 0.0 0 0 45.06 19.95
  L 29.44 19.94
  A 0.56 0.50 0.0 0 0 28.88 20.44
  L 28.83 26.06
  A 0.85 0.73 1.1 0 0 29.66 26.80
  L 37.69 27.01
  Q 38.23 27.02 37.87 27.45"
/>
<path stroke="#80a5c7" vector-effect="non-scaling-stroke" d="
  M 56.57 27.07
  L 64.69 26.74
  A 0.56 0.54 89.5 0 0 65.21 26.19
  L 65.25 20.53
  A 0.57 0.54 0.5 0 0 64.69 19.99
  L 48.82 19.80
  A 0.56 0.55 0.5 0 0 48.25 20.35
  L 48.25 37.83
  A 0.65 0.63 89.6 0 0 48.89 38.48
  L 54.20 38.46
  A 0.49 0.45 87.1 0 0 54.64 37.93
  Q 54.35 34.53 56.20 36.50
  Q 56.82 37.16 57.32 37.44
  Q 60.96 39.53 65.25 39.48
  Q 72.10 39.40 76.81 35.53
  Q 81.13 31.99 83.12 25.89
  Q 85.96 17.16 80.94 8.81
  Q 76.57 1.56 68.67 0.36
  Q 62.45 -0.59 57.17 2.19
  Q 51.86 5.00 48.62 11.04
  A 0.57 0.53 -60.6 0 0 48.80 11.79
  L 53.54 14.54
  A 0.57 0.51 -59.0 0 0 54.26 14.32
  Q 56.50 10.81 59.96 8.92
  Q 63.54 6.97 67.31 7.62
  Q 71.55 8.36 74.31 11.94
  Q 79.27 18.37 75.35 25.89
  Q 72.35 31.66 65.81 32.09
  Q 59.57 32.50 56.32 27.48
  Q 56.07 27.09 56.57 27.07"
/>
<path stroke="#004687" stroke-opacity="0.537" vector-effect="non-scaling-stroke" d="
  M 0.00 38.94
  Q 0.63 19.94 0.00 0.94"
/>
</g>
<path fill="#004a8f" d="
  M 0.00 0.00
  L 93.44 0.00
  Q 92.57 19.99 93.19 40.00
  L 0.77 40.00
  Q 1.17 20.88 1.00 1.75
  Q 0.99 0.11 0.00 0.44
  L 0.00 0.00
  Z
  M 37.87 27.45
  Q 32.54 33.84 26.02 31.81
  Q 20.54 30.11 18.00 24.50
  Q 15.39 18.75 18.81 13.38
  Q 21.87 8.56 27.11 7.79
  Q 34.14 6.74 39.59 14.04
  A 1.12 1.03 55.7 0 0 41.00 14.37
  L 45.09 11.80
  A 0.60 0.57 61.3 0 0 45.29 11.05
  Q 40.91 1.81 31.44 0.31
  Q 24.14 -0.84 18.57 3.02
  Q 13.70 6.40 11.31 12.91
  Q 7.96 22.07 12.82 30.11
  Q 16.96 36.96 23.71 38.87
  Q 31.11 40.96 38.86 35.91
  Q 39.27 35.65 39.27 36.15
  L 39.27 37.93
  A 0.55 0.53 0.6 0 0 39.81 38.46
  L 45.24 38.50
  A 0.50 0.50 89.4 0 0 45.74 37.99
  L 45.58 20.44
  A 0.52 0.49 0.0 0 0 45.06 19.95
  L 29.44 19.94
  A 0.56 0.50 0.0 0 0 28.88 20.44
  L 28.83 26.06
  A 0.85 0.73 1.1 0 0 29.66 26.80
  L 37.69 27.01
  Q 38.23 27.02 37.87 27.45
  Z
  M 56.57 27.07
  L 64.69 26.74
  A 0.56 0.54 89.5 0 0 65.21 26.19
  L 65.25 20.53
  A 0.57 0.54 0.5 0 0 64.69 19.99
  L 48.82 19.80
  A 0.56 0.55 0.5 0 0 48.25 20.35
  L 48.25 37.83
  A 0.65 0.63 89.6 0 0 48.89 38.48
  L 54.20 38.46
  A 0.49 0.45 87.1 0 0 54.64 37.93
  Q 54.35 34.53 56.20 36.50
  Q 56.82 37.16 57.32 37.44
  Q 60.96 39.53 65.25 39.48
  Q 72.10 39.40 76.81 35.53
  Q 81.13 31.99 83.12 25.89
  Q 85.96 17.16 80.94 8.81
  Q 76.57 1.56 68.67 0.36
  Q 62.45 -0.59 57.17 2.19
  Q 51.86 5.00 48.62 11.04
  A 0.57 0.53 -60.6 0 0 48.80 11.79
  L 53.54 14.54
  A 0.57 0.51 -59.0 0 0 54.26 14.32
  Q 56.50 10.81 59.96 8.92
  Q 63.54 6.97 67.31 7.62
  Q 71.55 8.36 74.31 11.94
  Q 79.27 18.37 75.35 25.89
  Q 72.35 31.66 65.81 32.09
  Q 59.57 32.50 56.32 27.48
  Q 56.07 27.09 56.57 27.07
  Z"
/>
<path fill="#020e22" fill-opacity="0.075" d="
  M 93.44 0.00
  L 94.00 0.00
  L 94.00 40.00
  L 93.19 40.00
  Q 92.57 19.99 93.44 0.00
  Z"
/>
<path fill="#020e22" fill-opacity="0.075" d="
  M 0.77 40.00
  L 0.00 40.00
  L 0.00 38.94
  Q 0.63 19.94 0.00 0.94
  L 0.00 0.44
  Q 0.99 0.11 1.00 1.75
  Q 1.17 20.88 0.77 40.00
  Z"
/>
<path fill="#ffffff" d="
  M 37.69 27.01
  L 29.66 26.80
  A 0.85 0.73 1.1 0 1 28.83 26.06
  L 28.88 20.44
  A 0.56 0.50 -0.0 0 1 29.44 19.94
  L 45.06 19.95
  A 0.52 0.49 0.0 0 1 45.58 20.44
  L 45.74 37.99
  A 0.50 0.50 89.4 0 1 45.24 38.50
  L 39.81 38.46
  A 0.55 0.53 0.6 0 1 39.27 37.93
  L 39.27 36.15
  Q 39.27 35.65 38.86 35.91
  Q 31.11 40.96 23.71 38.87
  Q 16.96 36.96 12.82 30.11
  Q 7.96 22.07 11.31 12.91
  Q 13.70 6.40 18.57 3.02
  Q 24.14 -0.84 31.44 0.31
  Q 40.91 1.81 45.29 11.05
  A 0.60 0.57 61.3 0 1 45.09 11.80
  L 41.00 14.37
  A 1.12 1.03 55.7 0 1 39.59 14.04
  Q 34.14 6.74 27.11 7.79
  Q 21.87 8.56 18.81 13.38
  Q 15.39 18.75 18.00 24.50
  Q 20.54 30.11 26.02 31.81
  Q 32.54 33.84 37.87 27.45
  Q 38.23 27.02 37.69 27.01
  Z"
/>
<path fill="#ffffff" d="
  M 56.32 27.48
  Q 59.57 32.50 65.81 32.09
  Q 72.35 31.66 75.35 25.89
  Q 79.27 18.37 74.31 11.94
  Q 71.55 8.36 67.31 7.62
  Q 63.54 6.97 59.96 8.92
  Q 56.50 10.81 54.26 14.32
  A 0.57 0.51 -59.0 0 1 53.54 14.54
  L 48.80 11.79
  A 0.57 0.53 -60.6 0 1 48.62 11.04
  Q 51.86 5.00 57.17 2.19
  Q 62.45 -0.59 68.67 0.36
  Q 76.57 1.56 80.94 8.81
  Q 85.96 17.16 83.12 25.89
  Q 81.13 31.99 76.81 35.53
  Q 72.10 39.40 65.25 39.48
  Q 60.96 39.53 57.32 37.44
  Q 56.82 37.16 56.20 36.50
  Q 54.35 34.53 54.64 37.93
  A 0.49 0.45 87.1 0 1 54.20 38.46
  L 48.89 38.48
  A 0.65 0.63 89.6 0 1 48.25 37.83
  L 48.25 20.35
  A 0.56 0.55 0.5 0 1 48.82 19.80
  L 64.69 19.99
  A 0.57 0.54 0.5 0 1 65.25 20.53
  L 65.21 26.19
  A 0.56 0.54 89.5 0 1 64.69 26.74
  L 56.57 27.07
  Q 56.07 27.09 56.32 27.48
  Z"
/>
<path fill="#004a8f" d="
  M 0.00 0.94
  Q 0.63 19.94 0.00 38.94
  L 0.00 0.94
  Z"
/>
</svg>
