<?xml version="1.0" encoding="UTF-8" standalone="no"?>
<!DOCTYPE svg PUBLIC "-//W3C//DTD SVG 1.1//EN" "http://www.w3.org/Graphics/SVG/1.1/DTD/svg11.dtd">
<svg xmlns="http://www.w3.org/2000/svg" version="1.1" viewBox="0 0 120 121">
<g stroke-width="2.00" fill="none" stroke-linecap="butt">
<path stroke="#5e95c0" stroke-opacity="0.996" vector-effect="non-scaling-stroke" d="
  M 71.75 106.21
  Q 72.50 105.80 73.02 106.30
  Q 73.56 106.82 73.76 106.93
  Q 77.92 109.07 82.46 109.58
  Q 86.69 110.05 91.31 108.62
  Q 103.84 104.74 107.56 92.87
  Q 110.02 85.03 108.01 77.06
  Q 105.78 68.23 98.57 63.34
  Q 89.92 57.47 79.54 59.40
  Q 68.52 61.46 62.13 72.54
  A 1.09 1.07 -59.6 0 0 62.50 74.01
  L 68.56 77.52
  A 0.58 0.57 -56.4 0 0 69.31 77.36
  Q 72.09 73.58 75.82 71.13
  Q 81.86 67.16 87.92 68.69
  Q 93.67 70.15 97.19 75.22
  Q 99.88 79.11 99.95 84.03
  Q 100.00 88.70 97.69 92.60
  Q 95.11 96.95 90.44 98.94
  Q 80.88 103.00 73.13 95.61
  Q 70.35 92.95 73.59 93.15
  Q 75.13 93.25 75.41 93.25
  Q 78.71 93.25 82.85 93.25
  A 1.06 0.97 -0.5 0 0 83.91 92.26
  L 83.76 84.81
  A 0.57 0.51 -0.5 0 0 83.19 84.31
  L 62.29 84.25"
/>
<path stroke="#4180b3" stroke-opacity="0.996" vector-effect="non-scaling-stroke" d="
  M 71.29 106.00
  Q 71.69 104.95 70.91 105.06
  A 0.79 0.76 -86.4 0 0 70.27 105.65
  L 69.76 107.70
  A 0.82 0.73 -81.3 0 1 69.01 108.32
  L 62.90 108.20
  A 1.18 1.18 0.7 0 1 61.75 107.02
  Q 61.75 97.00 61.75 87.00
  Q 61.75 85.13 62.29 84.25"
/>
<path stroke="#568cb8" stroke-opacity="0.996" vector-effect="non-scaling-stroke" d="
  M 24.56 95.69
  Q 21.33 92.25 20.27 87.66
  Q 19.24 83.20 20.84 78.95
  Q 22.33 74.98 25.49 72.13
  Q 28.63 69.30 32.59 68.52
  Q 38.56 67.36 44.09 70.96
  Q 47.92 73.47 50.26 76.89
  A 1.33 1.32 -32.1 0 0 52.02 77.29
  L 57.38 74.13
  A 1.21 1.20 -31.4 0 0 57.79 72.46
  Q 54.47 67.09 49.91 63.72
  Q 45.25 60.28 39.36 59.29
  Q 32.37 58.12 25.98 60.83
  Q 19.87 63.41 15.86 68.84
  Q 10.65 75.92 11.00 85.25
  Q 11.32 93.80 16.24 100.06
  Q 21.07 106.22 28.51 108.55
  Q 38.84 111.79 49.22 105.00
  Q 49.87 104.58 49.79 105.35
  Q 49.58 107.43 50.81 107.92
  Q 51.04 108.01 53.08 108.22
  Q 55.17 108.44 57.26 108.09
  A 0.65 0.63 87.8 0 0 57.79 107.50
  Q 58.73 96.51 57.99 85.37
  A 1.18 1.17 87.9 0 0 56.81 84.26
  L 36.87 84.32
  A 0.81 0.80 1.1 0 0 36.07 85.08
  L 35.72 91.74
  A 1.57 1.48 1.4 0 0 37.30 93.30
  L 47.41 93.26
  Q 48.72 93.25 47.89 94.32
  Q 41.73 102.16 31.37 99.47
  Q 27.07 98.35 24.56 95.69"
/>
</g>
<path fill="#bdd7e9" fill-opacity="0.988" d="
  M 71.75 106.21
  Q 72.50 105.80 73.02 106.30
  Q 73.56 106.82 73.76 106.93
  Q 77.92 109.07 82.46 109.58
  Q 86.69 110.05 91.31 108.62
  Q 103.84 104.74 107.56 92.87
  Q 110.02 85.03 108.01 77.06
  Q 105.78 68.23 98.57 63.34
  Q 89.92 57.47 79.54 59.40
  Q 68.52 61.46 62.13 72.54
  A 1.09 1.07 -59.6 0 0 62.50 74.01
  L 68.56 77.52
  A 0.58 0.57 -56.4 0 0 69.31 77.36
  Q 72.09 73.58 75.82 71.13
  Q 81.86 67.16 87.92 68.69
  Q 93.67 70.15 97.19 75.22
  Q 99.88 79.11 99.95 84.03
  Q 100.00 88.70 97.69 92.60
  Q 95.11 96.95 90.44 98.94
  Q 80.88 103.00 73.13 95.61
  Q 70.35 92.95 73.59 93.15
  Q 75.13 93.25 75.41 93.25
  Q 78.71 93.25 82.85 93.25
  A 1.06 0.97 -0.5 0 0 83.91 92.26
  L 83.76 84.81
  A 0.57 0.51 -0.5 0 0 83.19 84.31
  L 62.29 84.25
  Q 62.12 83.91 61.75 83.96
  Q 62.36 83.50 64.00 83.50
  Q 73.00 83.50 83.21 83.50
  A 1.68 1.68 86.5 0 1 84.88 84.98
  Q 85.34 88.85 84.76 93.18
  A 0.64 0.57 -86.4 0 1 84.20 93.74
  L 74.17 93.96
  Q 72.18 94.00 73.63 95.29
  Q 77.39 98.63 81.99 99.12
  Q 87.86 99.74 92.36 96.85
  Q 95.87 94.61 97.63 90.79
  Q 99.41 86.94 99.00 82.50
  Q 98.41 76.06 93.10 72.18
  Q 84.18 65.65 75.19 72.19
  Q 73.50 73.41 69.33 78.36
  A 0.60 0.59 -54.2 0 1 68.57 78.49
  L 62.16 74.59
  Q 60.49 73.58 61.54 71.93
  Q 63.75 68.49 66.60 65.57
  Q 69.74 62.34 73.02 60.70
  Q 79.03 57.69 86.50 58.25
  Q 94.60 58.86 100.06 63.70
  Q 111.09 73.48 109.76 86.31
  Q 108.65 96.90 101.28 103.95
  Q 92.01 112.81 76.75 109.25
  Q 74.27 108.67 71.75 106.21
  Z"
/>
<path fill="#adc6da" fill-opacity="0.988" d="
  M 16.69 101.81
  Q 12.30 96.84 10.78 90.46
  Q 9.33 84.34 10.72 78.05
  Q 12.53 69.86 18.81 64.31
  Q 26.85 57.21 37.76 58.18
  Q 47.26 59.02 53.46 65.82
  Q 55.45 68.02 56.26 68.99
  Q 57.61 70.60 58.61 72.53
  A 1.25 1.16 60.3 0 1 58.24 74.12
  L 51.19 78.58
  A 0.67 0.64 57.4 0 1 50.30 78.36
  Q 47.82 74.59 44.71 72.31
  Q 37.98 67.39 31.14 69.71
  Q 26.03 71.44 23.14 75.91
  Q 20.15 80.53 21.00 86.50
  Q 21.72 91.54 25.20 94.97
  Q 28.40 98.13 33.17 98.97
  Q 40.61 100.29 46.57 95.03
  Q 47.73 94.00 46.18 94.00
  L 35.66 94.00
  A 0.67 0.62 0.4 0 1 34.99 93.37
  L 35.13 85.12
  A 1.77 1.64 0.3 0 1 36.90 83.50
  L 56.84 83.50
  Q 59.00 83.50 59.00 85.66
  L 59.00 107.47
  A 1.49 1.49 -0.8 0 1 57.55 108.96
  Q 55.24 109.04 52.21 109.01
  Q 52.08 109.01 50.80 109.11
  Q 48.64 109.29 49.00 106.73
  Q 49.20 105.31 48.18 106.32
  Q 46.15 108.31 43.33 109.13
  Q 27.26 113.79 16.69 101.81
  Z
  M 24.56 95.69
  Q 21.33 92.25 20.27 87.66
  Q 19.24 83.20 20.84 78.95
  Q 22.33 74.98 25.49 72.13
  Q 28.63 69.30 32.59 68.52
  Q 38.56 67.36 44.09 70.96
  Q 47.92 73.47 50.26 76.89
  A 1.33 1.32 -32.1 0 0 52.02 77.29
  L 57.38 74.13
  A 1.21 1.20 -31.4 0 0 57.79 72.46
  Q 54.47 67.09 49.91 63.72
  Q 45.25 60.28 39.36 59.29
  Q 32.37 58.12 25.98 60.83
  Q 19.87 63.41 15.86 68.84
  Q 10.65 75.92 11.00 85.25
  Q 11.32 93.80 16.24 100.06
  Q 21.07 106.22 28.51 108.55
  Q 38.84 111.79 49.22 105.00
  Q 49.87 104.58 49.79 105.35
  Q 49.58 107.43 50.81 107.92
  Q 51.04 108.01 53.08 108.22
  Q 55.17 108.44 57.26 108.09
  A 0.65 0.63 87.8 0 0 57.79 107.50
  Q 58.73 96.51 57.99 85.37
  A 1.18 1.17 87.9 0 0 56.81 84.26
  L 36.87 84.32
  A 0.81 0.80 1.1 0 0 36.07 85.08
  L 35.72 91.74
  A 1.57 1.48 1.4 0 0 37.30 93.30
  L 47.41 93.26
  Q 48.72 93.25 47.89 94.32
  Q 41.73 102.16 31.37 99.47
  Q 27.07 98.35 24.56 95.69
  Z"
/>
<path fill="#015397" d="
  M 24.56 95.69
  Q 27.07 98.35 31.37 99.47
  Q 41.73 102.16 47.89 94.32
  Q 48.72 93.25 47.41 93.26
  L 37.30 93.30
  A 1.57 1.48 1.4 0 1 35.72 91.74
  L 36.07 85.08
  A 0.81 0.80 1.1 0 1 36.87 84.32
  L 56.81 84.26
  A 1.18 1.17 87.9 0 1 57.99 85.37
  Q 58.73 96.51 57.79 107.50
  A 0.65 0.63 87.8 0 1 57.26 108.09
  Q 55.17 108.44 53.08 108.22
  Q 51.04 108.01 50.81 107.92
  Q 49.58 107.43 49.79 105.35
  Q 49.87 104.58 49.22 105.00
  Q 38.84 111.79 28.51 108.55
  Q 21.07 106.22 16.24 100.06
  Q 11.32 93.80 11.00 85.25
  Q 10.65 75.92 15.86 68.84
  Q 19.87 63.41 25.98 60.83
  Q 32.37 58.12 39.36 59.29
  Q 45.25 60.28 49.91 63.72
  Q 54.47 67.09 57.79 72.46
  A 1.21 1.20 -31.4 0 1 57.38 74.13
  L 52.02 77.29
  A 1.33 1.32 -32.1 0 1 50.26 76.89
  Q 47.92 73.47 44.09 70.96
  Q 38.56 67.36 32.59 68.52
  Q 28.63 69.30 25.49 72.13
  Q 22.33 74.98 20.84 78.95
  Q 19.24 83.20 20.27 87.66
  Q 21.33 92.25 24.56 95.69
  Z"
/>
<path fill="#015397" d="
  M 71.75 106.21
  Q 71.51 106.18 71.29 106.00
  Q 71.69 104.95 70.91 105.06
  A 0.79 0.76 -86.4 0 0 70.27 105.65
  L 69.76 107.70
  A 0.82 0.73 -81.3 0 1 69.01 108.32
  L 62.90 108.20
  A 1.18 1.18 0.7 0 1 61.75 107.02
  Q 61.75 97.00 61.75 87.00
  Q 61.75 85.13 62.29 84.25
  L 83.19 84.31
  A 0.57 0.51 -0.5 0 1 83.76 84.81
  L 83.91 92.26
  A 1.06 0.97 -0.5 0 1 82.85 93.25
  Q 78.71 93.25 75.41 93.25
  Q 75.13 93.25 73.59 93.15
  Q 70.35 92.95 73.13 95.61
  Q 80.88 103.00 90.44 98.94
  Q 95.11 96.95 97.69 92.60
  Q 100.00 88.70 99.95 84.03
  Q 99.88 79.11 97.19 75.22
  Q 93.67 70.15 87.92 68.69
  Q 81.86 67.16 75.82 71.13
  Q 72.09 73.58 69.31 77.36
  A 0.58 0.57 -56.4 0 1 68.56 77.52
  L 62.50 74.01
  A 1.09 1.07 -59.6 0 1 62.13 72.54
  Q 68.52 61.46 79.54 59.40
  Q 89.92 57.47 98.57 63.34
  Q 105.78 68.23 108.01 77.06
  Q 110.02 85.03 107.56 92.87
  Q 103.84 104.74 91.31 108.62
  Q 86.69 110.05 82.46 109.58
  Q 77.92 109.07 73.76 106.93
  Q 73.56 106.82 73.02 106.30
  Q 72.50 105.80 71.75 106.21
  Z"
/>
<path fill="#82aecf" fill-opacity="0.988" d="
  M 61.75 83.96
  Q 62.12 83.91 62.29 84.25
  Q 61.75 85.13 61.75 87.00
  Q 61.75 97.00 61.75 107.02
  A 1.18 1.18 0.7 0 0 62.90 108.20
  L 69.01 108.32
  A 0.82 0.73 -81.3 0 0 69.76 107.70
  L 70.27 105.65
  A 0.79 0.76 -86.4 0 1 70.91 105.06
  Q 71.69 104.95 71.29 106.00
  L 70.71 108.34
  A 0.69 0.68 -83.3 0 1 70.06 108.86
  L 62.10 108.94
  A 1.14 1.08 89.5 0 1 61.00 107.80
  Q 61.00 96.12 60.93 85.25
  Q 60.93 84.35 61.75 83.96
  Z"
/>
</svg>
