<?xml version="1.0" encoding="UTF-8" standalone="no"?>
<!DOCTYPE svg PUBLIC "-//W3C//DTD SVG 1.1//EN" "http://www.w3.org/Graphics/SVG/1.1/DTD/svg11.dtd">
<svg xmlns="http://www.w3.org/2000/svg" version="1.1" viewBox="0 0 201 237">
<g stroke-width="2.00" fill="none" stroke-linecap="butt">
<path stroke="#fbfbfc" stroke-opacity="0.992" vector-effect="non-scaling-stroke" d="
  M 200.31 0.00
  Q 200.20 0.25 200.29 0.50"
/>
<path stroke="#b2acb2" stroke-opacity="0.976" vector-effect="non-scaling-stroke" d="
  M 200.29 0.50
  Q 200.14 103.91 200.24 207.31
  Q 200.26 222.05 200.50 236.79"
/>
<path stroke="#fbfbfc" stroke-opacity="0.992" vector-effect="non-scaling-stroke" d="
  M 200.50 236.79
  L 200.44 237.00"
/>
<path stroke="#cbcbca" stroke-opacity="0.651" vector-effect="non-scaling-stroke" d="
  M 0.69 237.00
  Q 1.18 201.62 0.86 166.25
  Q 0.76 155.39 0.81 146.25
  Q 1.19 74.31 0.75 2.37
  Q 0.75 1.98 0.68 1.64
  Q 0.18 -0.87 0.29 3.00
  Q 0.44 8.48 0.00 13.94"
/>
<path stroke="#8a9db2" vector-effect="non-scaling-stroke" d="
  M 43.50 29.21
  L 42.79 42.25"
/>
<path stroke="#8795a7" vector-effect="non-scaling-stroke" d="
  M 42.79 42.25
  Q 42.77 42.81 42.29 43.00"
/>
<path stroke="#97f2f3" vector-effect="non-scaling-stroke" d="
  M 42.29 43.00
  Q 41.53 42.63 40.44 42.66"
/>
<path stroke="#8693a0" vector-effect="non-scaling-stroke" d="
  M 40.44 42.66
  Q 36.00 46.06 35.77 51.26
  Q 35.60 55.08 36.17 57.73
  Q 36.96 61.33 40.56 63.13"
/>
<path stroke="#97f2f3" vector-effect="non-scaling-stroke" d="
  M 40.56 63.13
  Q 41.71 63.32 42.25 63.04"
/>
<path stroke="#8795a7" vector-effect="non-scaling-stroke" d="
  M 42.25 63.04
  L 45.00 63.04"
/>
<path stroke="#b3c8cf" vector-effect="non-scaling-stroke" d="
  M 45.00 63.04
  Q 42.16 81.31 59.41 86.55
  Q 60.19 86.78 59.45 87.12
  Q 55.83 88.74 52.28 90.63
  Q 47.90 92.97 46.06 95.43
  Q 43.24 99.17 42.96 104.25"
/>
<path stroke="#8795a7" vector-effect="non-scaling-stroke" d="
  M 42.96 104.25
  L 41.00 104.29"
/>
<path stroke="#97f2f3" vector-effect="non-scaling-stroke" d="
  M 41.00 104.29
  L 39.75 104.29"
/>
<path stroke="#8795a7" vector-effect="non-scaling-stroke" d="
  M 39.75 104.29
  Q 38.40 104.72 37.88 105.86"
/>
<path stroke="#d1e5eb" vector-effect="non-scaling-stroke" d="
  M 37.88 105.86
  Q 29.75 106.22 27.89 113.35
  Q 26.91 117.10 26.36 118.32
  Q 22.36 127.19 18.59 136.15
  Q 18.04 137.43 16.85 138.94
  Q 15.81 140.26 15.04 141.75"
/>
<path stroke="#dbeef3" vector-effect="non-scaling-stroke" d="
  M 15.04 141.75
  L 14.50 142.21"
/>
<path stroke="#8693a0" vector-effect="non-scaling-stroke" d="
  M 14.50 142.21
  Q 14.02 142.22 13.53 142.27
  Q 13.06 142.31 12.68 142.59
  Q 3.61 149.28 6.25 160.75
  Q 6.43 161.52 7.25 162.04"
/>
<path stroke="#dbeef3" vector-effect="non-scaling-stroke" d="
  M 7.25 162.04
  L 7.29 162.50"
/>
<path stroke="#c3d8df" vector-effect="non-scaling-stroke" d="
  M 7.29 162.50
  Q 10.10 178.25 9.64 194.20"
/>
<path stroke="#8795a7" vector-effect="non-scaling-stroke" d="
  M 9.64 194.20
  Q 8.09 195.06 7.75 196.75
  Q 6.49 203.10 8.16 208.99
  Q 9.29 212.99 9.59 213.67
  Q 10.75 216.30 13.57 217.00
  Q 15.16 217.39 17.89 216.73
  Q 20.04 216.21 22.19 215.69
  Q 24.50 215.12 25.71 212.97
  Q 26.62 211.34 26.31 208.88
  Q 25.94 205.92 24.95 203.08
  Q 24.80 202.63 24.87 202.28
  Q 25.06 201.32 25.82 201.96
  A 1.72 1.10 -87.1 0 1 26.30 202.80
  Q 27.09 206.11 29.26 208.70
  Q 29.82 209.37 30.47 209.41
  Q 31.28 209.46 31.91 208.87
  A 1.14 0.92 69.9 0 0 32.21 207.99
  Q 31.46 200.15 27.25 193.52
  Q 25.67 191.04 22.75 190.71"
/>
<path stroke="#dbeef3" vector-effect="non-scaling-stroke" d="
  M 22.75 190.71
  L 22.71 190.25"
/>
<path stroke="#c3d8df" vector-effect="non-scaling-stroke" d="
  M 22.71 190.25
  Q 22.47 189.22 22.12 188.23
  Q 21.74 187.14 21.65 186.21
  Q 20.78 176.84 19.71 167.50"
/>
<path stroke="#dbeef3" vector-effect="non-scaling-stroke" d="
  M 19.71 167.50
  Q 19.95 166.97 20.50 166.96"
/>
<path stroke="#8693a0" vector-effect="non-scaling-stroke" d="
  M 20.50 166.96
  Q 22.00 166.96 23.31 165.81
  Q 31.24 158.89 29.00 148.50
  Q 28.86 147.86 27.71 146.75"
/>
<path stroke="#dbeef3" vector-effect="non-scaling-stroke" d="
  M 27.71 146.75
  L 27.75 146.29"
/>
<path stroke="#d1e5eb" vector-effect="non-scaling-stroke" d="
  M 27.75 146.29
  Q 28.05 145.73 28.06 145.10
  Q 28.07 144.30 28.20 143.92
  Q 31.47 134.33 36.69 125.55"
/>
<path stroke="#8795a7" vector-effect="non-scaling-stroke" d="
  M 36.69 125.55
  Q 37.47 127.87 39.00 127.71"
/>
<path stroke="#97f2f3" vector-effect="non-scaling-stroke" d="
  M 39.00 127.71
  Q 39.54 128.17 40.25 127.96"
/>
<path stroke="#8795a7" vector-effect="non-scaling-stroke" d="
  M 40.25 127.96
  L 45.96 128.00"
/>
<path stroke="#b3c8cf" vector-effect="non-scaling-stroke" d="
  M 45.96 128.00
  Q 50.38 152.66 65.34 172.52"
/>
<path stroke="#8795a7" vector-effect="non-scaling-stroke" d="
  M 65.34 172.52
  Q 66.29 175.52 65.43 179.31"
/>
<path stroke="#86f0f4" vector-effect="non-scaling-stroke" d="
  M 65.43 179.31
  Q 65.15 180.51 65.25 183.25
  Q 65.29 184.39 65.79 185.00"
/>
<path stroke="#8795a7" vector-effect="non-scaling-stroke" d="
  M 65.79 185.00
  Q 65.15 188.76 68.54 190.00
  Q 71.70 191.14 75.01 191.68
  Q 89.09 193.97 103.27 192.41
  Q 109.38 191.74 114.31 189.56
  Q 116.71 188.51 116.11 185.31"
/>
<path stroke="#86f0f4" vector-effect="non-scaling-stroke" d="
  M 116.11 185.31
  Q 117.04 184.22 116.46 182.75"
/>
<path stroke="#8795a7" vector-effect="non-scaling-stroke" d="
  M 116.46 182.75
  Q 116.40 182.47 116.21 182.25"
/>
<path stroke="#86f0f4" vector-effect="non-scaling-stroke" d="
  M 116.21 182.25
  Q 117.20 180.70 116.29 179.25"
/>
<path stroke="#8795a7" vector-effect="non-scaling-stroke" d="
  M 116.29 179.25
  L 116.40 172.85"
/>
<path stroke="#b3c8cf" vector-effect="non-scaling-stroke" d="
  M 116.40 172.85
  Q 131.30 153.34 135.87 129.08
  Q 136.01 128.37 136.75 128.46"
/>
<path stroke="#8795a7" vector-effect="non-scaling-stroke" d="
  M 136.75 128.46
  Q 137.41 128.44 138.00 128.71"
/>
<path stroke="#97f2f3" vector-effect="non-scaling-stroke" d="
  M 138.00 128.71
  Q 138.66 129.52 139.50 128.96"
/>
<path stroke="#8795a7" vector-effect="non-scaling-stroke" d="
  M 139.50 128.96
  Q 140.68 129.03 141.29 128.00"
/>
<path stroke="#dbeef3" vector-effect="non-scaling-stroke" d="
  M 141.29 128.00
  Q 151.04 129.73 154.29 120.50"
/>
<path stroke="#c3d8df" vector-effect="non-scaling-stroke" d="
  M 154.29 120.50
  Q 160.87 112.21 167.36 103.85
  Q 169.83 100.66 173.35 98.96"
/>
<path stroke="#8795a7" vector-effect="non-scaling-stroke" d="
  M 173.35 98.96
  Q 184.81 95.91 185.75 83.75
  Q 185.89 81.98 184.96 81.00"
/>
<path stroke="#dbeef3" vector-effect="non-scaling-stroke" d="
  M 184.96 81.00
  L 185.04 80.25"
/>
<path stroke="#c3d8df" vector-effect="non-scaling-stroke" d="
  M 185.04 80.25
  Q 185.87 78.59 185.90 76.76
  Q 185.95 73.66 186.01 73.26
  Q 187.06 66.25 188.17 59.25
  Q 188.58 56.68 189.24 54.45
  Q 189.94 52.09 190.71 49.75"
/>
<path stroke="#dbeef3" vector-effect="non-scaling-stroke" d="
  M 190.71 49.75
  L 190.75 49.29"
/>
<path stroke="#8795a7" vector-effect="non-scaling-stroke" d="
  M 190.75 49.29
  Q 192.18 49.16 193.06 47.56
  Q 195.70 42.82 195.75 38.25
  Q 195.78 35.61 195.74 32.96
  Q 195.69 29.54 194.55 27.93
  Q 192.60 25.17 188.49 25.38
  Q 186.25 25.50 184.01 25.61
  Q 180.10 25.80 178.78 28.83
  Q 178.25 30.06 178.25 32.74
  Q 178.25 34.74 178.25 36.74
  A 1.82 1.41 67.8 0 1 177.99 37.67
  Q 176.88 39.30 176.81 36.75
  Q 176.73 33.73 175.63 30.95
  Q 175.26 30.01 174.65 29.68
  Q 173.81 29.24 172.87 29.69
  A 1.11 0.94 86.9 0 0 172.32 30.42
  Q 169.90 41.25 176.47 49.58"
/>
<path stroke="#c3d8df" vector-effect="non-scaling-stroke" d="
  M 176.47 49.58
  Q 177.66 52.82 176.95 56.49
  Q 176.27 59.96 176.26 60.05
  Q 175.31 66.72 173.71 73.25"
/>
<path stroke="#8795a7" vector-effect="non-scaling-stroke" d="
  M 173.71 73.25
  Q 172.27 72.69 170.69 73.44
  Q 160.06 78.44 160.97 90.29"
/>
<path stroke="#c3d8df" vector-effect="non-scaling-stroke" d="
  M 160.97 90.29
  Q 161.10 92.84 159.43 94.93
  Q 153.81 101.95 148.50 109.21"
/>
<path stroke="#dbeef3" vector-effect="non-scaling-stroke" d="
  M 148.50 109.21
  L 147.29 109.25"
/>
<path stroke="#8795a7" vector-effect="non-scaling-stroke" d="
  M 147.29 109.25
  Q 147.59 107.57 146.09 106.47"
/>
<path stroke="#97f2f3" vector-effect="non-scaling-stroke" d="
  M 146.09 106.47
  Q 145.67 105.82 144.50 106.04"
/>
<path stroke="#8795a7" vector-effect="non-scaling-stroke" d="
  M 144.50 106.04
  L 138.71 104.44"
/>
<path stroke="#b3c8cf" vector-effect="non-scaling-stroke" d="
  M 138.71 104.44
  Q 138.90 96.26 132.44 92.06
  Q 128.63 89.59 121.96 86.93
  Q 121.51 86.75 121.98 86.59
  Q 138.52 81.06 135.75 63.04"
/>
<path stroke="#8795a7" vector-effect="non-scaling-stroke" d="
  M 135.75 63.04
  L 138.75 62.96"
/>
<path stroke="#97f2f3" vector-effect="non-scaling-stroke" d="
  M 138.75 62.96
  Q 139.68 63.43 140.08 63.08"
/>
<path stroke="#8693a0" vector-effect="non-scaling-stroke" d="
  M 140.08 63.08
  Q 142.75 62.67 143.58 60.32
  Q 145.73 54.28 144.25 48.00
  Q 143.26 43.80 140.04 43.00"
/>
<path stroke="#97f2f3" vector-effect="non-scaling-stroke" d="
  M 140.04 43.00
  Q 139.34 42.53 138.50 42.79"
/>
<path stroke="#8a9db2" vector-effect="non-scaling-stroke" d="
  M 138.50 42.79
  Q 138.03 42.70 138.00 41.75
  Q 137.79 34.25 137.49 26.40
  Q 137.47 25.84 137.64 25.31
  Q 139.99 18.37 134.54 19.69
  A 1.00 0.98 4.1 0 0 133.86 20.27
  Q 132.80 22.89 134.44 25.11
  A 1.50 1.27 31.7 0 1 134.73 26.00
  L 133.96 42.18
  A 0.79 0.69 83.4 0 1 133.48 42.88
  Q 132.48 43.21 131.05 42.94"
/>
<path stroke="#b3c8cf" vector-effect="non-scaling-stroke" d="
  M 131.05 42.94
  Q 130.60 42.51 130.31 41.48
  Q 128.51 35.13 123.74 31.34
  Q 120.65 28.89 114.65 27.62
  Q 89.78 22.35 64.93 27.87
  Q 60.33 28.90 57.93 30.54
  Q 54.67 32.78 52.81 36.31
  Q 51.51 38.79 49.92 43.06"
/>
<path stroke="#8795a7" vector-effect="non-scaling-stroke" d="
  M 49.92 43.06
  L 47.29 42.85
  A 0.72 0.53 90.0 0 1 46.79 42.18
  L 46.08 25.81
  A 1.88 1.46 -37.7 0 1 46.32 24.89
  Q 47.49 22.81 46.94 20.41
  A 0.94 0.93 -87.1 0 0 46.35 19.75
  Q 44.91 19.26 43.30 19.73
  A 0.99 0.99 1.8 0 0 42.64 20.35
  Q 42.20 21.60 42.25 22.68
  Q 42.27 23.25 43.03 24.80
  Q 43.99 26.80 43.50 29.21"
/>
<path stroke="#3b5e77" vector-effect="non-scaling-stroke" d="
  M 49.92 43.06
  Q 46.67 52.85 45.00 63.04"
/>
<path stroke="#1f889b" vector-effect="non-scaling-stroke" d="
  M 42.25 63.04
  L 42.21 52.25"
/>
<path stroke="#1b3d68" vector-effect="non-scaling-stroke" d="
  M 42.21 52.25
  L 42.23 49.56
  A 0.58 0.57 -85.4 0 1 42.89 48.98
  Q 48.46 49.90 47.88 44.94
  A 0.62 0.59 -0.4 0 0 47.31 44.41
  L 42.21 44.00"
/>
<path stroke="#1f889b" vector-effect="non-scaling-stroke" d="
  M 42.21 44.00
  L 42.29 43.00"
/>
<path stroke="#12335a" vector-effect="non-scaling-stroke" d="
  M 42.79 42.25
  L 44.76 42.55
  A 0.59 0.46 -83.4 0 0 45.30 42.00
  Q 45.95 35.41 43.50 29.21"
/>
<path stroke="#2b9ab4" vector-effect="non-scaling-stroke" d="
  M 42.21 44.00
  Q 41.69 48.12 42.21 52.25"
/>
<path stroke="#477090" vector-effect="non-scaling-stroke" d="
  M 131.79 46.25
  Q 131.97 47.64 132.75 48.79"
/>
<path stroke="#3b5e77" vector-effect="non-scaling-stroke" d="
  M 132.75 48.79
  L 135.75 63.04"
/>
<path stroke="#3b5e77" vector-effect="non-scaling-stroke" d="
  M 138.71 104.44
  Q 138.29 116.70 136.25 125.75
  Q 135.82 127.66 136.75 128.46"
/>
<path stroke="#3b5e77" vector-effect="non-scaling-stroke" d="
  M 116.40 172.85
  L 115.91 172.54
  A 0.70 0.52 39.6 0 0 115.18 172.50
  Q 110.54 176.14 105.02 177.71
  Q 100.41 179.03 93.91 179.39
  Q 88.35 179.70 82.19 178.81
  Q 73.90 177.61 67.72 173.47
  Q 67.62 173.40 67.13 172.73
  Q 66.69 172.12 65.34 172.52"
/>
<path stroke="#3b5e77" vector-effect="non-scaling-stroke" d="
  M 45.96 128.00
  L 42.96 104.25"
/>
<path stroke="#1e8694" vector-effect="non-scaling-stroke" d="
  M 40.44 42.66
  Q 41.13 52.84 40.56 63.13"
/>
<path stroke="#2290a6" vector-effect="non-scaling-stroke" d="
  M 138.50 42.79
  Q 138.91 43.56 138.75 44.46"
/>
<path stroke="#1e4473" vector-effect="non-scaling-stroke" d="
  M 138.75 44.46
  Q 137.75 44.25 136.74 44.22
  Q 136.62 44.22 134.77 44.05
  Q 132.59 43.84 131.79 46.25"
/>
<path stroke="#3e6682" vector-effect="non-scaling-stroke" d="
  M 131.79 46.25
  L 131.05 42.94"
/>
<path stroke="#1f889b" vector-effect="non-scaling-stroke" d="
  M 144.50 106.04
  L 138.00 128.71"
/>
<path stroke="#0e869c" vector-effect="non-scaling-stroke" d="
  M 116.29 179.25
  Q 115.42 181.48 113.50 182.00
  Q 93.34 187.42 72.00 183.00
  Q 67.51 182.07 65.43 179.31"
/>
<path stroke="#1b3d68" vector-effect="non-scaling-stroke" d="
  M 138.71 49.00
  L 132.75 48.79"
/>
<path stroke="#1e8694" vector-effect="non-scaling-stroke" d="
  M 140.04 43.00
  L 140.08 63.08"
/>
<path stroke="#1f889b" vector-effect="non-scaling-stroke" d="
  M 138.75 62.96
  L 138.71 49.00"
/>
<path stroke="#2b9ab4" vector-effect="non-scaling-stroke" d="
  M 138.71 49.00
  Q 139.39 46.73 138.75 44.46"
/>
<path stroke="#1f889b" vector-effect="non-scaling-stroke" d="
  M 41.00 104.29
  L 40.25 127.96"
/>
<path stroke="#1f889b" vector-effect="non-scaling-stroke" d="
  M 146.09 106.47
  Q 142.30 117.59 139.50 128.96"
/>
<path stroke="#0e869c" vector-effect="non-scaling-stroke" d="
  M 116.21 182.25
  Q 110.20 184.46 108.94 184.69
  Q 91.22 187.88 73.50 184.77
  Q 69.88 184.14 66.77 182.27
  Q 66.35 182.02 66.05 182.06
  Q 65.41 182.14 65.73 182.97
  A 2.57 2.57 -89.2 0 0 67.19 184.43
  Q 71.50 186.12 75.66 186.80
  Q 77.95 187.18 84.34 187.72
  Q 99.14 188.95 113.00 185.25
  Q 114.97 184.72 116.46 182.75"
/>
<path stroke="#0e869c" vector-effect="non-scaling-stroke" d="
  M 116.11 185.31
  Q 111.24 187.32 108.75 187.75
  Q 95.09 190.11 79.75 188.75
  Q 71.87 188.05 65.79 185.00"
/>
<path stroke="#1f889b" vector-effect="non-scaling-stroke" d="
  M 39.75 104.29
  L 39.00 127.71"
/>
<path stroke="#597b93" vector-effect="non-scaling-stroke" d="
  M 36.69 125.55
  L 37.88 105.86"
/>
<path stroke="#63849b" vector-effect="non-scaling-stroke" d="
  M 147.29 109.25
  Q 145.11 118.89 141.29 128.00"
/>
<path stroke="#add3df" vector-effect="non-scaling-stroke" d="
  M 27.75 146.29
  L 26.50 143.42"
/>
<path stroke="#badce7" vector-effect="non-scaling-stroke" d="
  M 26.50 143.42
  Q 23.43 136.20 16.92 140.85"
/>
<path stroke="#add3df" vector-effect="non-scaling-stroke" d="
  M 16.92 140.85
  L 15.04 141.75"
/>
<path stroke="#cfebf3" vector-effect="non-scaling-stroke" d="
  M 151.21 111.75
  Q 149.82 111.89 150.37 112.87
  Q 150.77 113.58 150.85 113.84
  Q 153.26 122.02 146.23 126.26
  Q 144.64 127.22 146.62 126.98
  Q 146.94 126.94 147.25 126.82
  Q 151.76 125.13 153.54 120.50"
/>
<path stroke="#628194" vector-effect="non-scaling-stroke" d="
  M 27.71 146.75
  L 14.50 142.21"
/>
<path stroke="#c5e5ef" vector-effect="non-scaling-stroke" d="
  M 26.50 143.42
  Q 22.10 140.63 16.92 140.85"
/>
<path stroke="#a3ceda" vector-effect="non-scaling-stroke" d="
  M 160.66 97.98
  L 151.62 108.75
  A 0.97 0.96 -47.5 0 0 151.67 110.05
  Q 153.77 112.12 154.94 114.83
  A 0.44 0.43 51.7 0 0 155.69 114.93
  L 165.50 101.79"
/>
<path stroke="#a3ceda" vector-effect="non-scaling-stroke" d="
  M 154.21 119.00
  Q 153.63 119.61 153.54 120.50"
/>
<path stroke="#bbdde6" vector-effect="non-scaling-stroke" d="
  M 153.54 120.50
  Q 154.00 115.63 151.21 111.75"
/>
<path stroke="#a3ceda" vector-effect="non-scaling-stroke" d="
  M 151.21 111.75
  Q 150.80 110.26 149.50 109.54"
/>
<path stroke="#9fc6d3" vector-effect="non-scaling-stroke" d="
  M 162.50 91.46
  Q 161.16 92.03 161.95 93.41"
/>
<path stroke="#accfda" vector-effect="non-scaling-stroke" d="
  M 161.95 93.41
  Q 161.11 95.24 162.44 97.31
  Q 164.77 100.95 168.98 99.77"
/>
<path stroke="#9fc6d3" vector-effect="non-scaling-stroke" d="
  M 168.98 99.77
  Q 170.81 100.06 172.29 98.25"
/>
<path stroke="#9fc6d3" vector-effect="non-scaling-stroke" d="
  M 154.29 120.50
  L 154.21 119.00"
/>
<path stroke="#8bb8c5" vector-effect="non-scaling-stroke" d="
  M 154.21 119.00
  Q 155.37 116.94 157.04 115.29
  Q 158.80 113.54 159.60 111.23
  A 1.67 1.59 81.6 0 1 160.15 110.45
  Q 163.60 107.77 165.68 103.94
  Q 165.89 103.55 166.32 103.00
  Q 167.43 101.60 165.50 101.79"
/>
<path stroke="#9fc6d3" vector-effect="non-scaling-stroke" d="
  M 165.50 101.79
  Q 162.85 100.95 160.66 97.98"
/>
<path stroke="#8bb8c5" vector-effect="non-scaling-stroke" d="
  M 160.66 97.98
  Q 161.01 96.50 159.54 96.90
  A 1.68 1.17 -70.9 0 0 158.77 97.46
  L 149.50 109.54"
/>
<path stroke="#9fc6d3" vector-effect="non-scaling-stroke" d="
  M 149.50 109.54
  Q 148.92 109.57 148.50 109.21"
/>
<path stroke="#628194" vector-effect="non-scaling-stroke" d="
  M 20.50 166.96
  L 7.25 162.04"
/>
<path stroke="#4b6e87" vector-effect="non-scaling-stroke" d="
  M 173.35 98.96
  Q 172.90 97.90 172.29 98.25"
/>
<path stroke="#63849b" vector-effect="non-scaling-stroke" d="
  M 172.29 98.25
  L 162.50 91.46"
/>
<path stroke="#4b6e87" vector-effect="non-scaling-stroke" d="
  M 162.50 91.46
  Q 162.23 90.71 160.97 90.29"
/>
<path stroke="#c5e5ef" vector-effect="non-scaling-stroke" d="
  M 168.98 99.77
  Q 164.56 97.51 161.95 93.41"
/>
<path stroke="#9fc6d3" vector-effect="non-scaling-stroke" d="
  M 19.71 167.50
  Q 9.79 173.85 7.29 162.50"
/>
<path stroke="#63849b" vector-effect="non-scaling-stroke" d="
  M 184.96 81.00
  L 174.25 73.71"
/>
<path stroke="#9fc6d3" vector-effect="non-scaling-stroke" d="
  M 177.25 49.29
  Q 177.64 50.56 178.52 51.04"
/>
<path stroke="#accfda" vector-effect="non-scaling-stroke" d="
  M 178.52 51.04
  Q 181.91 57.61 188.00 53.21"
/>
<path stroke="#9fc6d3" vector-effect="non-scaling-stroke" d="
  M 188.00 53.21
  L 190.71 49.75"
/>
<path stroke="#9fc6d3" vector-effect="non-scaling-stroke" d="
  M 185.04 80.25
  L 184.67 77.92"
/>
<path stroke="#b7d5df" vector-effect="non-scaling-stroke" d="
  M 184.67 77.92
  Q 184.45 70.51 177.25 71.79"
/>
<path stroke="#9fc6d3" vector-effect="non-scaling-stroke" d="
  M 177.25 71.79
  Q 175.33 72.14 174.25 73.71"
/>
<path stroke="#4b6e87" vector-effect="non-scaling-stroke" d="
  M 174.25 73.71
  Q 173.85 73.65 173.71 73.25"
/>
<path stroke="#9fc6d3" vector-effect="non-scaling-stroke" d="
  M 22.71 190.25
  Q 21.17 189.81 20.21 188.48
  A 1.77 1.25 73.8 0 0 19.47 187.89
  Q 11.00 184.91 10.50 194.04"
/>
<path stroke="#4b6e87" vector-effect="non-scaling-stroke" d="
  M 10.50 194.04
  Q 10.00 194.44 9.64 194.20"
/>
<path stroke="#cfebf3" vector-effect="non-scaling-stroke" d="
  M 184.67 77.92
  Q 182.67 74.94 179.61 73.52
  Q 179.53 73.48 178.35 73.19
  Q 177.36 72.94 177.25 71.79"
/>
<path stroke="#c5e5ef" vector-effect="non-scaling-stroke" d="
  M 188.00 53.21
  Q 187.93 52.57 187.44 52.35
  Q 187.14 52.22 186.57 52.39
  Q 182.36 53.68 178.52 51.04"
/>
<path stroke="#63849b" vector-effect="non-scaling-stroke" d="
  M 190.75 49.29
  L 177.25 49.29"
/>
<path stroke="#4b6e87" vector-effect="non-scaling-stroke" d="
  M 177.25 49.29
  L 176.47 49.58"
/>
<path stroke="#63849b" vector-effect="non-scaling-stroke" d="
  M 22.75 190.71
  L 10.50 194.04"
/>
<path stroke="#fbfbfc" stroke-opacity="0.992" vector-effect="non-scaling-stroke" d="
  M 199.69 24.35
  Q 199.94 74.60 200.00 23.21
  Q 200.00 22.32 199.60 22.94
  Q 199.47 23.14 199.57 23.55
  Q 199.69 24.08 199.69 24.35"
/>
<path stroke="#99ffff" vector-effect="non-scaling-stroke" d="
  M 110.75 195.42
  Q 109.69 195.12 108.65 195.40
  Q 106.88 195.87 106.78 195.88
  Q 89.61 198.17 71.86 195.40
  Q 69.41 195.02 69.92 197.45
  Q 72.36 208.98 78.94 219.36
  Q 82.59 225.10 87.81 229.47
  Q 90.39 231.64 93.06 229.56
  Q 102.73 222.05 107.28 211.15
  Q 109.99 204.64 111.67 196.96
  A 1.30 1.30 -76.0 0 0 110.75 195.42"
/>
<path stroke="#bebaae" stroke-opacity="0.651" vector-effect="non-scaling-stroke" d="
  M 0.11 235.69
  L 0.12 14.94"
/>
<path stroke="#1b3d68" vector-effect="non-scaling-stroke" d="
  M 45.14 22.40
  Q 45.47 20.36 44.35 21.39
  A 1.28 1.14 72.2 0 0 43.97 22.25
  Q 43.83 24.75 44.85 23.17
  Q 45.07 22.83 45.14 22.40"
/>
<path stroke="#8fb7c3" vector-effect="non-scaling-stroke" d="
  M 130.65 46.74
  Q 128.98 41.51 127.56 38.44
  Q 125.29 33.53 120.88 30.94
  Q 117.98 29.23 111.67 28.15
  Q 88.24 24.14 64.86 29.28
  Q 56.55 31.11 53.31 38.31
  Q 49.05 47.79 46.84 60.07
  Q 45.49 67.57 46.25 72.00
  Q 47.23 77.71 51.66 81.28
  Q 54.54 83.60 60.96 85.56
  Q 87.03 93.52 114.00 87.25
  Q 121.27 85.56 125.81 83.31
  Q 134.93 78.80 134.75 68.00
  Q 134.60 59.22 130.65 46.74"
/>
<path stroke="#8fb7c3" vector-effect="non-scaling-stroke" d="
  M 53.23 91.58
  Q 43.28 95.81 44.37 107.01
  Q 44.78 111.25 44.67 115.50
  Q 44.63 116.78 45.04 116.31
  Q 45.26 116.06 45.29 116.38
  Q 48.01 141.96 60.90 164.14
  Q 64.45 170.26 68.31 172.44
  Q 83.73 181.14 100.54 177.50
  Q 106.89 176.12 110.92 174.16
  Q 116.29 171.54 119.44 166.94
  Q 129.56 152.12 133.75 132.00
  Q 136.03 121.02 136.81 113.97
  Q 136.83 113.77 137.50 108.70
  Q 138.02 104.79 137.50 101.75
  Q 136.24 94.34 128.75 91.71"
/>
<path stroke="#7ba8b6" vector-effect="non-scaling-stroke" d="
  M 128.75 91.71
  Q 124.92 89.21 119.02 87.59
  Q 118.50 87.45 117.98 87.58
  Q 91.75 94.21 65.39 88.37
  Q 62.31 87.68 60.11 88.27
  Q 56.45 89.25 53.23 91.58"
/>
<path stroke="#a3ceda" vector-effect="non-scaling-stroke" d="
  M 128.75 91.71
  Q 90.95 103.61 53.23 91.58"
/>
<path stroke="#1b3d68" vector-effect="non-scaling-stroke" d="
  M 193.19 36.94
  Q 193.18 41.03 191.45 45.44
  Q 190.95 46.69 191.56 46.42
  A 1.25 0.78 -81.5 0 0 192.11 45.77
  Q 194.31 40.26 193.88 34.31
  Q 193.78 33.04 193.81 31.69
  Q 193.84 30.37 193.73 29.06
  A 1.01 1.01 -76.0 0 0 193.27 28.29
  Q 190.21 26.35 192.36 28.70
  A 1.51 1.39 23.6 0 1 192.73 29.54
  Q 193.19 34.32 193.19 36.94"
/>
<path stroke="#1b3d68" vector-effect="non-scaling-stroke" d="
  M 174.26 38.07
  Q 174.36 36.54 173.68 35.13
  Q 173.44 34.64 173.36 35.17
  Q 172.45 41.59 176.03 46.91
  Q 176.32 47.33 176.14 46.85
  Q 175.07 43.93 174.33 40.93
  Q 174.13 40.10 174.26 38.07"
/>
<path stroke="#2195a7" vector-effect="non-scaling-stroke" d="
  M 188.28 38.18
  A 3.05 3.05 0.0 0 0 185.23 35.13
  A 3.05 3.05 0.0 0 0 182.18 38.18
  A 3.05 3.05 0.0 0 0 185.23 41.23
  A 3.05 3.05 0.0 0 0 188.28 38.18"
/>
<path stroke="#9fc6d3" vector-effect="non-scaling-stroke" d="
  M 80.83 32.93
  Q 76.71 34.46 72.50 34.96"
/>
<path stroke="#8fb7c3" vector-effect="non-scaling-stroke" d="
  M 72.50 34.96
  Q 62.95 34.86 59.56 43.31
  Q 55.60 53.19 54.36 64.06
  Q 53.77 69.21 54.73 71.88
  Q 56.23 76.04 60.69 77.81
  Q 69.18 81.19 81.06 82.69"
/>
<path stroke="#cfebf3" vector-effect="non-scaling-stroke" d="
  M 81.06 82.69
  Q 79.00 83.10 77.02 83.07
  Q 76.42 83.06 74.58 82.54
  Q 73.31 82.19 71.98 82.40
  A 1.43 1.26 52.1 0 1 71.08 82.23
  Q 69.76 81.45 67.75 81.50
  Q 66.63 81.53 66.38 82.19
  A 0.63 0.50 21.3 0 0 66.78 82.88
  Q 89.52 92.00 113.19 83.19
  Q 114.91 82.55 114.60 81.27
  A 0.58 0.52 -11.0 0 0 113.95 80.88
  Q 112.43 81.12 109.56 82.06
  Q 105.20 83.50 99.50 82.96"
/>
<path stroke="#8fb7c3" vector-effect="non-scaling-stroke" d="
  M 99.50 82.96
  Q 106.17 81.45 112.92 80.33
  Q 114.53 80.06 116.07 79.38
  Q 117.59 78.71 119.13 78.09
  Q 122.20 76.85 123.45 75.73
  Q 127.21 72.39 126.76 66.75
  Q 125.83 55.39 121.77 44.86
  Q 119.86 39.92 117.53 37.95
  Q 114.22 35.14 109.29 35.25"
/>
<path stroke="#9fc6d3" vector-effect="non-scaling-stroke" d="
  M 109.29 35.25
  Q 107.46 34.14 105.40 34.11
  Q 102.96 34.07 102.15 33.85
  Q 100.55 33.40 99.00 32.79"
/>
<path stroke="#cfebf3" vector-effect="non-scaling-stroke" d="
  M 99.00 32.79
  Q 102.37 32.32 105.53 33.23
  Q 106.51 33.51 107.64 33.45
  Q 108.74 33.40 109.83 33.57
  Q 112.30 33.97 111.05 32.66
  Q 110.73 32.32 110.20 32.16
  Q 91.20 26.17 71.25 32.00
  Q 70.00 32.37 69.67 33.21
  A 0.40 0.35 9.3 0 0 70.07 33.69
  Q 73.59 33.64 77.00 32.75
  Q 77.74 32.56 80.83 32.93"
/>
<path stroke="#b7d5df" vector-effect="non-scaling-stroke" d="
  M 99.00 32.79
  L 80.83 32.93"
/>
<path stroke="#77a1af" vector-effect="non-scaling-stroke" d="
  M 109.29 35.25
  Q 108.20 35.66 107.00 35.54"
/>
<path stroke="#45667b" vector-effect="non-scaling-stroke" d="
  M 107.00 35.54
  Q 91.39 33.50 75.75 35.29"
/>
<path stroke="#77a1af" vector-effect="non-scaling-stroke" d="
  M 75.75 35.29
  L 72.50 34.96"
/>
<path stroke="#36566c" vector-effect="non-scaling-stroke" d="
  M 107.00 35.54
  Q 110.39 36.34 113.73 37.32
  Q 117.41 38.39 119.00 41.90
  Q 124.59 54.22 125.50 67.75
  Q 125.74 71.33 123.51 73.92
  Q 121.97 75.71 118.32 77.10
  Q 111.05 79.87 103.39 80.90
  Q 96.33 81.86 88.09 81.68
  Q 79.16 81.49 70.06 79.44
  Q 65.52 78.41 61.60 76.69
  Q 57.85 75.03 56.55 72.49
  Q 55.02 69.52 55.50 65.50
  Q 56.75 54.99 59.76 46.70
  Q 61.47 41.97 62.30 40.75
  Q 64.23 37.90 68.00 37.00
  Q 71.86 36.08 75.75 35.29"
/>
<path stroke="#a7c6cf" vector-effect="non-scaling-stroke" d="
  M 99.50 82.96
  Q 99.27 83.17 99.00 83.21"
/>
<path stroke="#85aebb" vector-effect="non-scaling-stroke" d="
  M 99.00 83.21
  Q 92.24 82.31 85.50 83.21"
/>
<path stroke="#a7c6cf" vector-effect="non-scaling-stroke" d="
  M 85.50 83.21
  Q 83.18 83.63 81.06 82.69"
/>
<path stroke="#c5e2eb" vector-effect="non-scaling-stroke" d="
  M 85.50 83.21
  L 99.00 83.21"
/>
<path stroke="#a3ceda" vector-effect="non-scaling-stroke" d="
  M 53.38 80.63
  Q 53.96 81.10 54.92 81.38
  Q 56.06 81.71 55.33 80.78
  Q 51.06 75.39 50.73 68.88
  Q 50.55 65.24 52.23 56.67
  Q 54.19 46.68 58.31 37.31
  Q 59.03 35.67 62.58 32.27
  A 0.78 0.48 -41.1 0 0 62.83 31.45
  Q 62.61 31.16 62.00 31.50
  Q 57.43 34.00 55.05 38.23
  Q 53.92 40.26 51.73 46.98
  Q 49.37 54.23 48.45 61.80
  Q 47.57 68.99 47.99 71.69
  Q 48.81 76.96 53.38 80.63"
/>
<path stroke="#a3ceda" vector-effect="non-scaling-stroke" d="
  M 120.61 32.27
  A 2.76 2.75 67.4 0 0 118.75 31.50
  Q 117.24 31.47 118.34 32.38
  Q 121.56 35.01 123.21 38.63
  Q 123.48 39.22 125.72 45.98
  Q 129.10 56.21 130.00 65.50
  Q 130.81 73.87 125.37 80.92
  A 0.93 0.54 -47.0 0 0 125.17 81.79
  Q 125.38 82.14 126.00 81.75
  Q 133.68 76.93 132.97 67.25
  Q 132.27 57.59 129.47 48.39
  Q 127.49 41.89 126.33 39.69
  Q 124.36 35.92 120.61 32.27"
/>
<path stroke="#0d2b4f" vector-effect="non-scaling-stroke" d="
  M 69.50 38.79
  Q 65.36 39.26 63.46 42.26
  Q 62.83 43.24 61.12 48.28
  Q 59.29 53.68 58.00 60.75
  Q 57.18 65.23 57.35 68.72
  Q 57.44 70.71 58.22 72.13
  Q 59.25 74.00 60.81 74.69
  Q 68.80 78.20 78.30 79.28
  Q 86.93 80.25 96.22 79.72
  Q 106.58 79.13 116.53 75.93
  Q 120.45 74.67 121.90 73.10
  Q 124.13 70.67 123.75 66.75
  Q 122.50 53.85 117.44 42.56
  Q 115.63 38.53 111.24 39.32"
/>
<path stroke="#15355c" vector-effect="non-scaling-stroke" d="
  M 111.24 39.32
  Q 98.86 36.14 86.30 36.57
  Q 83.28 36.67 77.89 37.61
  Q 73.72 38.33 69.50 38.79"
/>
<path stroke="#1e4473" vector-effect="non-scaling-stroke" d="
  M 111.24 39.32
  Q 90.15 38.02 71.50 39.75
  Q 69.95 39.89 69.50 38.79"
/>
<path stroke="#249db2" vector-effect="non-scaling-stroke" d="
  M 78.53 46.98
  Q 75.26 44.59 72.69 47.19
  Q 69.45 50.46 70.23 55.44
  A 0.46 0.45 -11.3 0 0 70.80 55.81
  Q 75.76 54.52 81.95 54.50
  A 0.72 0.71 -7.1 0 0 82.64 53.62
  Q 81.62 49.23 78.53 46.98"
/>
<path stroke="#249db2" vector-effect="non-scaling-stroke" d="
  M 105.34 45.95
  Q 103.24 45.68 101.69 47.19
  Q 98.86 49.94 98.06 53.83
  A 0.69 0.69 1.7 0 0 98.84 54.65
  Q 103.70 53.92 109.41 56.00
  A 1.04 1.03 -76.2 0 0 110.79 55.16
  Q 111.35 50.90 108.38 47.68
  Q 106.99 46.17 105.34 45.95"
/>
<path stroke="#1e4473" vector-effect="non-scaling-stroke" d="
  M 112.1224 61.4745
  A 5.81 2.26 14.6 0 0 107.0697 57.8230
  A 5.81 2.26 14.6 0 0 100.8776 58.5455
  A 5.81 2.26 14.6 0 0 105.9303 62.1970
  A 5.81 2.26 14.6 0 0 112.1224 61.4745"
/>
<path stroke="#1e4473" vector-effect="non-scaling-stroke" d="
  M 79.17 57.97
  Q 73.84 56.30 70.39 59.31
  Q 67.01 62.25 71.48 62.50
  Q 76.64 62.78 79.62 59.77
  A 1.09 1.09 -59.1 0 0 79.17 57.97"
/>
<path stroke="#249db2" vector-effect="non-scaling-stroke" d="
  M 87.59 68.47
  Q 83.36 68.00 79.13 66.63
  Q 78.10 66.30 78.73 67.17
  Q 83.31 73.57 90.94 73.28
  Q 94.20 73.16 96.75 71.85
  Q 99.50 70.45 101.48 67.88
  Q 102.91 66.02 100.71 66.85
  Q 94.41 69.22 87.59 68.47"
/>
<path stroke="#193a61" vector-effect="non-scaling-stroke" d="
  M 37.38 56.11
  Q 37.60 57.72 38.17 59.27
  A 0.35 0.28 76.2 0 0 38.49 59.52
  Q 38.70 59.49 38.67 59.26
  Q 37.95 53.35 38.71 47.30
  Q 38.79 46.59 38.45 47.21
  Q 36.86 50.08 37.02 52.89
  Q 37.07 53.80 37.38 56.11"
/>
<path stroke="#113053" vector-effect="non-scaling-stroke" d="
  M 142.41 56.38
  Q 141.58 62.85 143.01 56.05
  Q 143.06 55.82 143.19 55.61
  Q 145.00 52.60 143.56 49.94
  Q 142.79 48.51 142.69 47.56
  Q 142.59 46.62 142.32 47.37
  Q 142.24 47.60 142.25 48.00
  Q 142.35 51.99 142.43 55.99
  Q 142.44 56.19 142.41 56.38"
/>
<path stroke="#1ca8f2" vector-effect="non-scaling-stroke" d="
  M 77.56 47.94
  Q 74.90 46.44 73.39 48.46
  Q 72.27 49.96 72.96 51.82
  Q 74.16 55.01 78.23 53.38
  A 1.29 1.25 0.9 0 0 78.91 52.74
  Q 80.39 49.53 77.56 47.94"
/>
<path stroke="#2093a0" vector-effect="non-scaling-stroke" d="
  M 104.25 53.46
  L 105.25 53.54"
/>
<path stroke="#1ca8f2" vector-effect="non-scaling-stroke" d="
  M 105.25 53.54
  Q 105.62 53.83 106.06 53.79
  Q 106.40 53.75 106.73 53.41
  Q 108.19 51.91 107.79 50.06
  Q 107.43 48.41 105.78 47.75
  Q 103.90 46.99 102.49 48.36
  Q 101.34 49.46 101.34 51.09
  Q 101.34 53.52 104.25 53.46"
/>
<path stroke="#093b93" vector-effect="non-scaling-stroke" d="
  M 105.25 53.54
  Q 107.90 52.13 106.29 49.75"
/>
<path stroke="#4680d2" vector-effect="non-scaling-stroke" d="
  M 106.29 49.75
  Q 106.12 48.69 105.00 49.04"
/>
<path stroke="#093b93" vector-effect="non-scaling-stroke" d="
  M 105.00 49.04
  Q 101.76 48.41 103.02 51.21
  Q 103.55 52.39 104.25 53.46"
/>
<path stroke="#496b80" vector-effect="non-scaling-stroke" d="
  M 105.00 49.04
  Q 104.72 52.44 106.29 49.75"
/>
<path stroke="#4680d2" vector-effect="non-scaling-stroke" d="
  M 77.75 50.46
  Q 77.79 48.70 76.00 48.79"
/>
<path stroke="#05368f" vector-effect="non-scaling-stroke" d="
  M 76.00 48.79
  Q 73.07 48.80 74.25 51.50
  Q 75.78 54.99 77.97 51.98
  Q 78.68 51.01 77.75 50.46"
/>
<path stroke="#45667b" vector-effect="non-scaling-stroke" d="
  M 76.00 48.79
  Q 75.44 51.73 77.75 50.46"
/>
<path stroke="#9fc6d3" vector-effect="non-scaling-stroke" d="
  M 184.14 69.95
  L 185.94 57.24
  A 0.49 0.48 7.5 0 0 185.51 56.69
  L 182.07 56.25
  Q 181.62 56.20 181.15 55.89
  Q 179.25 54.63 179.03 57.00
  Q 178.47 63.16 177.17 69.20
  A 0.37 0.37 4.1 0 0 177.56 69.65
  Q 181.79 69.38 184.38 72.54
  Q 184.73 72.96 184.82 72.46
  Q 185.01 71.51 184.42 70.79
  A 1.21 0.92 34.4 0 1 184.14 69.95"
/>
<path stroke="#1b3d68" vector-effect="non-scaling-stroke" d="
  M 166.94 77.44
  Q 162.57 81.52 162.10 87.26
  Q 162.04 87.97 162.43 87.68
  Q 162.55 87.59 162.62 87.39
  Q 164.94 80.52 170.41 75.79
  A 0.55 0.43 -40.9 0 0 170.54 75.10
  Q 170.29 74.80 169.92 75.16
  Q 169.60 75.48 169.37 75.60
  Q 168.23 76.23 166.94 77.44"
/>
<path stroke="#08172b" vector-effect="non-scaling-stroke" d="
  M 178.93 86.18
  A 5.90 5.90 0.0 0 0 173.03 80.28
  A 5.90 5.90 0.0 0 0 167.13 86.18
  A 5.90 5.90 0.0 0 0 173.03 92.08
  A 5.90 5.90 0.0 0 0 178.93 86.18"
/>
<path stroke="#1b3d68" vector-effect="non-scaling-stroke" d="
  M 179.31 94.56
  Q 183.13 90.70 184.00 86.18
  Q 184.05 85.89 184.22 85.47
  Q 184.48 84.81 184.19 84.68
  A 0.66 0.43 -68.1 0 0 183.52 85.15
  Q 181.07 91.60 176.11 96.40
  Q 175.71 96.79 176.24 96.64
  Q 177.70 96.19 179.31 94.56"
/>
<path stroke="#1a8183" vector-effect="non-scaling-stroke" d="
  M 177.92 86.16
  A 4.83 4.83 0.0 0 0 173.09 81.33
  A 4.83 4.83 0.0 0 0 168.26 86.16
  A 4.83 4.83 0.0 0 0 173.09 90.99
  A 4.83 4.83 0.0 0 0 177.92 86.16"
/>
<path stroke="#9fc6d3" vector-effect="non-scaling-stroke" d="
  M 62.79 140.50
  L 64.00 143.04"
/>
<path stroke="#8fb7c3" vector-effect="non-scaling-stroke" d="
  M 64.00 143.04
  Q 64.87 145.58 66.96 146.83
  Q 68.41 147.70 71.36 147.64
  Q 90.75 147.27 110.14 147.63
  Q 113.65 147.70 115.44 146.44
  Q 118.92 144.00 118.69 138.81
  Q 118.41 132.72 118.62 118.19
  Q 118.68 113.49 114.75 111.29"
/>
<path stroke="#8fb7c3" vector-effect="non-scaling-stroke" d="
  M 114.75 111.29
  Q 113.81 111.18 113.29 110.65
  A 1.27 0.88 61.1 0 0 112.49 110.25
  L 93.75 110.21"
/>
<path stroke="#c5e5ef" vector-effect="non-scaling-stroke" d="
  M 93.75 110.21
  Q 105.27 109.04 109.50 109.75
  Q 111.50 110.09 111.75 108.79"
/>
<path stroke="#cfebf3" vector-effect="non-scaling-stroke" d="
  M 111.75 108.79
  Q 117.37 108.66 119.50 113.25
  Q 121.56 117.71 120.50 123.50
  Q 120.03 126.08 120.75 140.00
  Q 120.77 140.37 121.06 140.47
  A 0.67 0.48 -64.0 0 0 121.73 140.11
  Q 123.87 136.28 123.75 130.25
  Q 123.60 122.74 124.00 115.27
  Q 124.15 112.43 126.18 110.94
  L 134.46 104.89
  Q 136.27 103.57 135.52 101.67
  Q 133.19 95.81 127.97 94.14
  A 0.89 0.86 -56.5 0 0 127.12 94.33
  Q 123.94 97.14 120.94 101.19
  Q 119.48 103.15 117.33 104.41
  Q 115.61 105.43 112.80 105.52
  Q 89.83 106.28 67.87 105.30
  Q 65.14 105.18 63.26 103.01
  L 56.25 94.93
  Q 54.94 93.42 53.18 94.49
  Q 48.09 97.58 46.87 102.06
  A 2.34 2.34 25.7 0 0 47.75 104.56
  Q 49.95 106.17 51.79 107.51
  Q 51.83 107.54 54.43 109.23
  Q 57.87 111.46 58.50 114.75
  Q 59.00 117.35 58.75 129.75
  Q 58.64 135.32 60.39 139.41
  Q 60.74 140.21 61.26 140.47
  Q 61.96 140.82 62.79 140.50"
/>
<path stroke="#ddf4fb" vector-effect="non-scaling-stroke" d="
  M 111.75 108.79
  Q 94.95 108.47 78.16 108.71
  Q 78.08 108.71 73.36 108.47
  Q 69.31 108.26 66.00 110.00
  Q 63.10 111.52 62.79 115.25"
/>
<path stroke="#b7d5df" vector-effect="non-scaling-stroke" d="
  M 62.79 115.25
  L 62.79 140.50"
/>
<path stroke="#9dbfcb" vector-effect="non-scaling-stroke" d="
  M 93.75 110.21
  Q 79.04 110.58 74.19 110.06
  Q 68.80 109.48 65.50 112.54"
/>
<path stroke="#accfda" vector-effect="non-scaling-stroke" d="
  M 65.50 112.54
  Q 65.05 114.17 64.95 112.84
  A 0.24 0.22 79.6 0 0 64.66 112.62
  Q 64.28 112.75 64.12 113.07
  Q 64.01 113.28 64.08 113.93
  Q 64.22 115.22 62.79 115.25"
/>
<path stroke="#67919f" vector-effect="non-scaling-stroke" d="
  M 114.75 111.29
  Q 114.32 111.63 113.75 111.54"
/>
<path stroke="#36566c" vector-effect="non-scaling-stroke" d="
  M 113.75 111.54
  Q 94.30 110.84 74.84 111.22
  Q 74.78 111.22 72.18 111.12
  Q 68.40 110.97 65.54 113.50"
/>
<path stroke="#77a1af" vector-effect="non-scaling-stroke" d="
  M 65.54 113.50
  L 65.50 112.54"
/>
<path stroke="#77a1af" vector-effect="non-scaling-stroke" d="
  M 64.00 143.04
  Q 64.80 142.70 64.54 141.75"
/>
<path stroke="#36566c" vector-effect="non-scaling-stroke" d="
  M 113.75 111.54
  Q 117.79 114.02 117.60 118.67
  Q 117.51 120.73 117.51 120.85
  Q 117.72 137.19 117.31 140.81
  Q 116.76 145.74 111.98 146.66
  Q 108.90 147.25 107.00 147.25
  Q 91.75 147.25 76.50 147.27
  Q 70.36 147.28 67.81 146.19
  Q 65.45 145.18 64.54 141.75"
/>
<path stroke="#45667b" vector-effect="non-scaling-stroke" d="
  M 64.54 141.75
  Q 64.47 130.25 64.50 118.75
  Q 64.51 115.24 65.54 113.50"
/>
<path stroke="#a3ceda" vector-effect="non-scaling-stroke" d="
  M 87.56 168.19
  Q 73.16 166.76 63.14 155.34
  Q 56.20 147.42 52.05 137.73
  Q 51.87 137.32 51.56 137.16
  Q 51.01 136.89 51.19 137.54
  Q 55.04 151.72 62.86 164.16
  Q 67.71 171.87 76.94 174.56
  Q 92.27 179.04 106.61 174.08
  Q 110.52 172.73 113.36 170.54
  Q 116.66 167.99 118.69 164.94
  Q 126.46 153.21 130.66 137.98
  Q 130.88 137.17 130.75 136.98
  A 0.66 0.26 -61.9 0 0 130.12 137.51
  Q 126.19 146.41 120.04 153.67
  Q 113.34 161.56 106.01 165.06
  Q 97.40 169.17 87.56 168.19"
/>
<path stroke="#cfebf3" vector-effect="non-scaling-stroke" d="
  M 72.94 151.04
  Q 91.29 157.48 109.47 150.86
  A 0.69 0.56 -17.2 0 0 109.93 150.18
  Q 109.79 149.59 109.00 149.58
  Q 91.28 149.45 73.55 149.56
  Q 73.00 149.56 72.61 149.76
  Q 71.27 150.46 72.94 151.04"
/>
<path stroke="#1b3d68" vector-effect="non-scaling-stroke" d="
  M 141.40 112.50
  Q 142.67 110.99 142.96 109.28
  Q 143.53 105.87 140.51 105.96
  A 0.63 0.55 -0.2 0 0 139.90 106.49
  L 139.78 112.02
  Q 139.73 114.50 141.40 112.50"
/>
<path stroke="#c5e2eb" vector-effect="non-scaling-stroke" d="
  M 28.80 118.48
  Q 29.23 120.93 31.19 123.06
  Q 32.15 124.11 32.69 123.49
  A 0.86 0.62 53.6 0 0 32.68 122.62
  Q 30.81 119.36 30.53 115.68
  Q 30.38 113.60 31.32 112.00
  Q 32.11 110.65 33.56 108.81
  Q 34.29 107.89 33.33 107.96
  Q 33.03 107.98 32.72 108.17
  Q 29.57 110.17 28.91 113.51
  Q 28.39 116.12 28.80 118.48"
/>
<path stroke="#add3df" vector-effect="non-scaling-stroke" d="
  M 32.63 127.47
  Q 32.80 127.38 32.90 127.23
  A 0.94 0.57 45.8 0 0 32.70 126.35
  Q 30.64 123.71 27.75 122.06
  A 0.43 0.43 -63.7 0 0 27.14 122.27
  L 21.37 136.18
  A 0.90 0.87 -73.1 0 0 21.99 137.40
  Q 24.58 137.91 25.48 138.64
  A 1.44 1.40 31.2 0 0 27.68 138.13
  L 32.19 127.88
  A 0.96 0.55 -13.4 0 1 32.63 127.47"
/>
<path stroke="#0d2b4f" vector-effect="non-scaling-stroke" d="
  M 115.6903 117.6769
  A 4.79 4.79 0.0 0 0 110.8919 112.8953
  L 71.0520 112.9648
  A 4.79 4.79 0.0 0 0 66.2704 117.7631
  L 66.3097 140.3031
  A 4.79 4.79 0.0 0 0 71.1081 145.0847
  L 110.9480 145.0152
  A 4.79 4.79 0.0 0 0 115.7296 140.2169
  L 115.6903 117.6769"
/>
<path stroke="#249db2" vector-effect="non-scaling-stroke" d="
  M 81.57 130.26
  L 86.79 130.35
  A 0.79 0.73 -89.3 0 1 87.50 131.14
  L 87.50 136.25
  A 0.80 0.73 -79.5 0 0 87.95 136.97
  Q 89.15 137.46 90.26 136.93
  A 0.83 0.76 78.0 0 0 90.70 136.18
  L 90.59 121.94
  A 0.80 0.80 -79.2 0 0 90.10 121.22
  Q 87.01 119.92 87.68 124.80
  Q 88.02 127.33 85.80 127.28
  L 81.78 127.19
  A 0.83 0.80 -89.3 0 1 81.00 126.36
  L 81.00 121.81
  A 0.71 0.71 -82.6 0 0 80.47 121.12
  Q 77.51 120.35 77.58 122.75
  Q 77.75 129.62 77.75 136.25
  A 0.40 0.40 7.5 0 0 78.05 136.64
  Q 81.42 137.48 81.24 135.73
  Q 80.98 133.28 81.04 130.82
  A 0.58 0.52 -88.4 0 1 81.57 130.26"
/>
<path stroke="#249db2" vector-effect="non-scaling-stroke" d="
  M 97.1778 122.5706
  A 1.50 1.40 7.3 0 0 95.8679 120.9913
  A 1.50 1.40 7.3 0 0 94.2022 122.1894
  A 1.50 1.40 7.3 0 0 95.5121 123.7687
  A 1.50 1.40 7.3 0 0 97.1778 122.5706"
/>
<path stroke="#249db2" vector-effect="non-scaling-stroke" d="
  M 101.85 132.62
  Q 102.61 133.06 103.07 132.82
  Q 103.42 132.63 103.49 131.91
  Q 103.88 127.96 104.47 124.03
  Q 105.05 120.20 101.68 120.91
  A 1.22 1.22 81.9 0 0 100.71 122.20
  L 101.48 132.04
  A 0.76 0.73 13.7 0 0 101.85 132.62"
/>
<path stroke="#249db2" vector-effect="non-scaling-stroke" d="
  M 97.25 125.96
  A 0.44 0.44 0.0 0 0 96.81 125.52
  L 94.69 125.52
  A 0.44 0.44 0.0 0 0 94.25 125.96
  L 94.25 136.58
  A 0.44 0.44 0.0 0 0 94.69 137.02
  L 96.81 137.02
  A 0.44 0.44 0.0 0 0 97.25 136.58
  L 97.25 125.96"
/>
<path stroke="#249db2" vector-effect="non-scaling-stroke" d="
  M 103.98 135.61
  A 1.48 1.48 0.0 0 0 102.50 134.13
  A 1.48 1.48 0.0 0 0 101.02 135.61
  A 1.48 1.48 0.0 0 0 102.50 137.09
  A 1.48 1.48 0.0 0 0 103.98 135.61"
/>
<path stroke="#193a61" vector-effect="non-scaling-stroke" d="
  M 8.43 154.58
  Q 9.23 149.64 12.15 145.58
  A 1.21 0.62 -45.4 0 0 12.43 144.70
  Q 12.31 144.21 11.54 144.80
  Q 9.08 146.72 8.19 149.73
  Q 6.97 153.85 6.82 158.16
  Q 6.81 158.48 6.92 158.69
  Q 7.16 159.15 7.48 158.91
  Q 7.67 158.76 7.75 158.40
  Q 8.12 156.50 8.43 154.58"
/>
<path stroke="#2093a0" vector-effect="non-scaling-stroke" d="
  M 22.45 154.20
  A 4.81 4.81 0.0 0 0 17.64 149.39
  A 4.81 4.81 0.0 0 0 12.83 154.20
  A 4.81 4.81 0.0 0 0 17.64 159.01
  A 4.81 4.81 0.0 0 0 22.45 154.20"
/>
<path stroke="#193a61" vector-effect="non-scaling-stroke" d="
  M 27.33 151.90
  Q 25.95 157.84 22.90 163.65
  Q 22.80 163.84 22.81 163.99
  Q 22.83 164.45 23.29 164.03
  Q 28.45 159.18 28.25 151.99
  Q 28.15 148.38 27.33 151.90"
/>
<path stroke="#9fc6d3" vector-effect="non-scaling-stroke" d="
  M 18.71 177.30
  Q 18.55 175.00 17.73 171.64
  A 0.77 0.77 -16.2 0 0 16.73 171.09
  Q 14.96 171.67 12.89 171.55
  Q 12.45 171.53 11.67 171.22
  Q 10.11 170.62 10.61 172.53
  A 1.72 1.59 49.1 0 1 10.58 173.46
  Q 9.49 176.63 10.73 179.55
  Q 11.58 181.55 11.68 182.65
  Q 11.83 184.41 11.82 185.95
  A 0.52 0.51 -12.1 0 0 12.55 186.42
  Q 16.08 184.78 18.98 185.76
  A 0.31 0.31 -83.5 0 0 19.39 185.43
  Q 19.00 181.37 18.71 177.30"
/>
<path stroke="#1b3d68" vector-effect="non-scaling-stroke" d="
  M 24.44 193.11
  Q 27.35 197.80 28.78 201.85
  Q 28.84 202.02 29.00 203.19
  Q 29.12 204.08 29.95 204.34
  A 0.37 0.34 -85.1 0 0 30.39 203.94
  Q 29.69 196.94 24.71 192.88
  Q 23.87 192.19 24.44 193.11"
/>
<path stroke="#1b3d68" vector-effect="non-scaling-stroke" d="
  M 9.19 202.94
  Q 9.57 210.36 11.81 214.94
  Q 12.63 216.61 14.79 215.92
  Q 15.26 215.77 14.78 215.59
  Q 13.04 214.94 12.69 214.06
  Q 9.51 206.08 9.73 197.50
  Q 9.75 196.93 9.58 197.46
  Q 9.00 199.33 9.19 202.94"
/>
<path stroke="#2195a7" vector-effect="non-scaling-stroke" d="
  M 20.83 203.74
  A 3.06 3.06 0.0 0 0 17.77 200.68
  A 3.06 3.06 0.0 0 0 14.71 203.74
  A 3.06 3.06 0.0 0 0 17.77 206.80
  A 3.06 3.06 0.0 0 0 20.83 203.74"
/>
</g>
<path fill="#ffffff" d="
  M 0.00 0.00
  L 200.31 0.00
  Q 200.20 0.25 200.29 0.50
  Q 200.14 103.91 200.24 207.31
  Q 200.26 222.05 200.50 236.79
  L 200.44 237.00
  L 0.69 237.00
  Q 1.18 201.62 0.86 166.25
  Q 0.76 155.39 0.81 146.25
  Q 1.19 74.31 0.75 2.37
  Q 0.75 1.98 0.68 1.64
  Q 0.18 -0.87 0.29 3.00
  Q 0.44 8.48 0.00 13.94
  L 0.00 0.00
  Z
  M 43.50 29.21
  L 42.79 42.25
  Q 42.77 42.81 42.29 43.00
  Q 41.53 42.63 40.44 42.66
  Q 36.00 46.06 35.77 51.26
  Q 35.60 55.08 36.17 57.73
  Q 36.96 61.33 40.56 63.13
  Q 41.71 63.32 42.25 63.04
  L 45.00 63.04
  Q 42.16 81.31 59.41 86.55
  Q 60.19 86.78 59.45 87.12
  Q 55.83 88.74 52.28 90.63
  Q 47.90 92.97 46.06 95.43
  Q 43.24 99.17 42.96 104.25
  L 41.00 104.29
  L 39.75 104.29
  Q 38.40 104.72 37.88 105.86
  Q 29.75 106.22 27.89 113.35
  Q 26.91 117.10 26.36 118.32
  Q 22.36 127.19 18.59 136.15
  Q 18.04 137.43 16.85 138.94
  Q 15.81 140.26 15.04 141.75
  L 14.50 142.21
  Q 14.02 142.22 13.53 142.27
  Q 13.06 142.31 12.68 142.59
  Q 3.61 149.28 6.25 160.75
  Q 6.43 161.52 7.25 162.04
  L 7.29 162.50
  Q 10.10 178.25 9.64 194.20
  Q 8.09 195.06 7.75 196.75
  Q 6.49 203.10 8.16 208.99
  Q 9.29 212.99 9.59 213.67
  Q 10.75 216.30 13.57 217.00
  Q 15.16 217.39 17.89 216.73
  Q 20.04 216.21 22.19 215.69
  Q 24.50 215.12 25.71 212.97
  Q 26.62 211.34 26.31 208.88
  Q 25.94 205.92 24.95 203.08
  Q 24.80 202.63 24.87 202.28
  Q 25.06 201.32 25.82 201.96
  A 1.72 1.10 -87.1 0 1 26.30 202.80
  Q 27.09 206.11 29.26 208.70
  Q 29.82 209.37 30.47 209.41
  Q 31.28 209.46 31.91 208.87
  A 1.14 0.92 69.9 0 0 32.21 207.99
  Q 31.46 200.15 27.25 193.52
  Q 25.67 191.04 22.75 190.71
  L 22.71 190.25
  Q 22.47 189.22 22.12 188.23
  Q 21.74 187.14 21.65 186.21
  Q 20.78 176.84 19.71 167.50
  Q 19.95 166.97 20.50 166.96
  Q 22.00 166.96 23.31 165.81
  Q 31.24 158.89 29.00 148.50
  Q 28.86 147.86 27.71 146.75
  L 27.75 146.29
  Q 28.05 145.73 28.06 145.10
  Q 28.07 144.30 28.20 143.92
  Q 31.47 134.33 36.69 125.55
  Q 37.47 127.87 39.00 127.71
  Q 39.54 128.17 40.25 127.96
  L 45.96 128.00
  Q 50.38 152.66 65.34 172.52
  Q 66.29 175.52 65.43 179.31
  Q 65.15 180.51 65.25 183.25
  Q 65.29 184.39 65.79 185.00
  Q 65.15 188.76 68.54 190.00
  Q 71.70 191.14 75.01 191.68
  Q 89.09 193.97 103.27 192.41
  Q 109.38 191.74 114.31 189.56
  Q 116.71 188.51 116.11 185.31
  Q 117.04 184.22 116.46 182.75
  Q 116.40 182.47 116.21 182.25
  Q 117.20 180.70 116.29 179.25
  L 116.40 172.85
  Q 131.30 153.34 135.87 129.08
  Q 136.01 128.37 136.75 128.46
  Q 137.41 128.44 138.00 128.71
  Q 138.66 129.52 139.50 128.96
  Q 140.68 129.03 141.29 128.00
  Q 151.04 129.73 154.29 120.50
  Q 160.87 112.21 167.36 103.85
  Q 169.83 100.66 173.35 98.96
  Q 184.81 95.91 185.75 83.75
  Q 185.89 81.98 184.96 81.00
  L 185.04 80.25
  Q 185.87 78.59 185.90 76.76
  Q 185.95 73.66 186.01 73.26
  Q 187.06 66.25 188.17 59.25
  Q 188.58 56.68 189.24 54.45
  Q 189.94 52.09 190.71 49.75
  L 190.75 49.29
  Q 192.18 49.16 193.06 47.56
  Q 195.70 42.82 195.75 38.25
  Q 195.78 35.61 195.74 32.96
  Q 195.69 29.54 194.55 27.93
  Q 192.60 25.17 188.49 25.38
  Q 186.25 25.50 184.01 25.61
  Q 180.10 25.80 178.78 28.83
  Q 178.25 30.06 178.25 32.74
  Q 178.25 34.74 178.25 36.74
  A 1.82 1.41 67.8 0 1 177.99 37.67
  Q 176.88 39.30 176.81 36.75
  Q 176.73 33.73 175.63 30.95
  Q 175.26 30.01 174.65 29.68
  Q 173.81 29.24 172.87 29.69
  A 1.11 0.94 86.9 0 0 172.32 30.42
  Q 169.90 41.25 176.47 49.58
  Q 177.66 52.82 176.95 56.49
  Q 176.27 59.96 176.26 60.05
  Q 175.31 66.72 173.71 73.25
  Q 172.27 72.69 170.69 73.44
  Q 160.06 78.44 160.97 90.29
  Q 161.10 92.84 159.43 94.93
  Q 153.81 101.95 148.50 109.21
  L 147.29 109.25
  Q 147.59 107.57 146.09 106.47
  Q 145.67 105.82 144.50 106.04
  L 138.71 104.44
  Q 138.90 96.26 132.44 92.06
  Q 128.63 89.59 121.96 86.93
  Q 121.51 86.75 121.98 86.59
  Q 138.52 81.06 135.75 63.04
  L 138.75 62.96
  Q 139.68 63.43 140.08 63.08
  Q 142.75 62.67 143.58 60.32
  Q 145.73 54.28 144.25 48.00
  Q 143.26 43.80 140.04 43.00
  Q 139.34 42.53 138.50 42.79
  Q 138.03 42.70 138.00 41.75
  Q 137.79 34.25 137.49 26.40
  Q 137.47 25.84 137.64 25.31
  Q 139.99 18.37 134.54 19.69
  A 1.00 0.98 4.1 0 0 133.86 20.27
  Q 132.80 22.89 134.44 25.11
  A 1.50 1.27 31.7 0 1 134.73 26.00
  L 133.96 42.18
  A 0.79 0.69 83.4 0 1 133.48 42.88
  Q 132.48 43.21 131.05 42.94
  Q 130.60 42.51 130.31 41.48
  Q 128.51 35.13 123.74 31.34
  Q 120.65 28.89 114.65 27.62
  Q 89.78 22.35 64.93 27.87
  Q 60.33 28.90 57.93 30.54
  Q 54.67 32.78 52.81 36.31
  Q 51.51 38.79 49.92 43.06
  L 47.29 42.85
  A 0.72 0.53 90.0 0 1 46.79 42.18
  L 46.08 25.81
  A 1.88 1.46 -37.7 0 1 46.32 24.89
  Q 47.49 22.81 46.94 20.41
  A 0.94 0.93 -87.1 0 0 46.35 19.75
  Q 44.91 19.26 43.30 19.73
  A 0.99 0.99 1.8 0 0 42.64 20.35
  Q 42.20 21.60 42.25 22.68
  Q 42.27 23.25 43.03 24.80
  Q 43.99 26.80 43.50 29.21
  Z
  M 199.69 24.35
  Q 199.94 74.60 200.00 23.21
  Q 200.00 22.32 199.60 22.94
  Q 199.47 23.14 199.57 23.55
  Q 199.69 24.08 199.69 24.35
  Z
  M 110.75 195.42
  Q 109.69 195.12 108.65 195.40
  Q 106.88 195.87 106.78 195.88
  Q 89.61 198.17 71.86 195.40
  Q 69.41 195.02 69.92 197.45
  Q 72.36 208.98 78.94 219.36
  Q 82.59 225.10 87.81 229.47
  Q 90.39 231.64 93.06 229.56
  Q 102.73 222.05 107.28 211.15
  Q 109.99 204.64 111.67 196.96
  A 1.30 1.30 -76.0 0 0 110.75 195.42
  Z"
/>
<path fill="#f7f7f9" fill-opacity="0.984" d="
  M 200.31 0.00
  L 201.00 0.00
  L 201.00 237.00
  L 200.44 237.00
  L 200.50 236.79
  Q 200.74 236.74 200.74 236.50
  Q 200.86 118.49 200.56 0.49
  A 0.09 0.07 -13.3 0 0 200.44 0.43
  L 200.29 0.50
  Q 200.20 0.25 200.31 0.00
  Z"
/>
<path fill="#615562" fill-opacity="0.953" d="
  M 200.50 236.79
  Q 200.26 222.05 200.24 207.31
  Q 200.14 103.91 200.29 0.50
  L 200.44 0.43
  A 0.09 0.07 -13.3 0 1 200.56 0.49
  Q 200.86 118.49 200.74 236.50
  Q 200.74 236.74 200.50 236.79
  Z"
/>
<path fill="#1d1b19" fill-opacity="0.298" d="
  M 0.69 237.00
  L 0.00 237.00
  Q -0.09 236.34 0.11 235.69
  L 0.12 14.94
  Q -0.07 14.44 0.00 13.94
  Q 0.44 8.48 0.29 3.00
  Q 0.18 -0.87 0.68 1.64
  Q 0.75 1.98 0.75 2.37
  Q 1.19 74.31 0.81 146.25
  Q 0.76 155.39 0.86 166.25
  Q 1.18 201.62 0.69 237.00
  Z"
/>
<path fill="#eeeada" d="
  M 0.12 14.94
  L 0.11 235.69
  L 0.12 14.94
  Z"
/>
<path fill="#0f2b4f" d="
  M 49.92 43.06
  Q 46.67 52.85 45.00 63.04
  L 42.25 63.04
  L 42.21 52.25
  L 42.23 49.56
  A 0.58 0.57 -85.4 0 1 42.89 48.98
  Q 48.46 49.90 47.88 44.94
  A 0.62 0.59 -0.4 0 0 47.31 44.41
  L 42.21 44.00
  L 42.29 43.00
  Q 42.77 42.81 42.79 42.25
  L 44.76 42.55
  A 0.59 0.46 -83.4 0 0 45.30 42.00
  Q 45.95 35.41 43.50 29.21
  Q 43.99 26.80 43.03 24.80
  Q 42.27 23.25 42.25 22.68
  Q 42.20 21.60 42.64 20.35
  A 0.99 0.99 1.8 0 1 43.30 19.73
  Q 44.91 19.26 46.35 19.75
  A 0.94 0.93 -87.1 0 1 46.94 20.41
  Q 47.49 22.81 46.32 24.89
  A 1.88 1.46 -37.7 0 0 46.08 25.81
  L 46.79 42.18
  A 0.72 0.53 90.0 0 0 47.29 42.85
  L 49.92 43.06
  Z
  M 45.14 22.40
  Q 45.47 20.36 44.35 21.39
  A 1.28 1.14 72.2 0 0 43.97 22.25
  Q 43.83 24.75 44.85 23.17
  Q 45.07 22.83 45.14 22.40
  Z"
/>
<path fill="#153a65" d="
  M 138.50 42.79
  Q 138.91 43.56 138.75 44.46
  Q 137.75 44.25 136.74 44.22
  Q 136.62 44.22 134.77 44.05
  Q 132.59 43.84 131.79 46.25
  L 131.05 42.94
  Q 132.48 43.21 133.48 42.88
  A 0.79 0.69 83.4 0 0 133.96 42.18
  L 134.73 26.00
  A 1.50 1.27 31.7 0 0 134.44 25.11
  Q 132.80 22.89 133.86 20.27
  A 1.00 0.98 4.1 0 1 134.54 19.69
  Q 139.99 18.37 137.64 25.31
  Q 137.47 25.84 137.49 26.40
  Q 137.79 34.25 138.00 41.75
  Q 138.03 42.70 138.50 42.79
  Z"
/>
<path fill="#264e80" d="
  M 44.85 23.17
  Q 43.83 24.75 43.97 22.25
  A 1.28 1.14 72.2 0 1 44.35 21.39
  Q 45.47 20.36 45.14 22.40
  Q 45.07 22.83 44.85 23.17
  Z"
/>
<path fill="#f7f7f9" fill-opacity="0.984" d="
  M 199.57 23.55
  Q 199.47 23.14 199.60 22.94
  Q 200.00 22.32 200.00 23.21
  Q 199.94 74.60 199.69 24.35
  Q 199.69 24.08 199.57 23.55
  Z"
/>
<path fill="#67919f" d="
  M 131.05 42.94
  L 131.79 46.25
  Q 131.97 47.64 132.75 48.79
  L 135.75 63.04
  Q 138.52 81.06 121.98 86.59
  Q 121.51 86.75 121.96 86.93
  Q 128.63 89.59 132.44 92.06
  Q 138.90 96.26 138.71 104.44
  Q 138.29 116.70 136.25 125.75
  Q 135.82 127.66 136.75 128.46
  Q 136.01 128.37 135.87 129.08
  Q 131.30 153.34 116.40 172.85
  L 115.91 172.54
  A 0.70 0.52 39.6 0 0 115.18 172.50
  Q 110.54 176.14 105.02 177.71
  Q 100.41 179.03 93.91 179.39
  Q 88.35 179.70 82.19 178.81
  Q 73.90 177.61 67.72 173.47
  Q 67.62 173.40 67.13 172.73
  Q 66.69 172.12 65.34 172.52
  Q 50.38 152.66 45.96 128.00
  L 42.96 104.25
  Q 43.24 99.17 46.06 95.43
  Q 47.90 92.97 52.28 90.63
  Q 55.83 88.74 59.45 87.12
  Q 60.19 86.78 59.41 86.55
  Q 42.16 81.31 45.00 63.04
  Q 46.67 52.85 49.92 43.06
  Q 51.51 38.79 52.81 36.31
  Q 54.67 32.78 57.93 30.54
  Q 60.33 28.90 64.93 27.87
  Q 89.78 22.35 114.65 27.62
  Q 120.65 28.89 123.74 31.34
  Q 128.51 35.13 130.31 41.48
  Q 130.60 42.51 131.05 42.94
  Z
  M 130.65 46.74
  Q 128.98 41.51 127.56 38.44
  Q 125.29 33.53 120.88 30.94
  Q 117.98 29.23 111.67 28.15
  Q 88.24 24.14 64.86 29.28
  Q 56.55 31.11 53.31 38.31
  Q 49.05 47.79 46.84 60.07
  Q 45.49 67.57 46.25 72.00
  Q 47.23 77.71 51.66 81.28
  Q 54.54 83.60 60.96 85.56
  Q 87.03 93.52 114.00 87.25
  Q 121.27 85.56 125.81 83.31
  Q 134.93 78.80 134.75 68.00
  Q 134.60 59.22 130.65 46.74
  Z
  M 53.23 91.58
  Q 43.28 95.81 44.37 107.01
  Q 44.78 111.25 44.67 115.50
  Q 44.63 116.78 45.04 116.31
  Q 45.26 116.06 45.29 116.38
  Q 48.01 141.96 60.90 164.14
  Q 64.45 170.26 68.31 172.44
  Q 83.73 181.14 100.54 177.50
  Q 106.89 176.12 110.92 174.16
  Q 116.29 171.54 119.44 166.94
  Q 129.56 152.12 133.75 132.00
  Q 136.03 121.02 136.81 113.97
  Q 136.83 113.77 137.50 108.70
  Q 138.02 104.79 137.50 101.75
  Q 136.24 94.34 128.75 91.71
  Q 124.92 89.21 119.02 87.59
  Q 118.50 87.45 117.98 87.58
  Q 91.75 94.21 65.39 88.37
  Q 62.31 87.68 60.11 88.27
  Q 56.45 89.25 53.23 91.58
  Z"
/>
<path fill="#0f2b4f" d="
  M 190.75 49.29
  L 177.25 49.29
  L 176.47 49.58
  Q 169.90 41.25 172.32 30.42
  A 1.11 0.94 86.9 0 1 172.87 29.69
  Q 173.81 29.24 174.65 29.68
  Q 175.26 30.01 175.63 30.95
  Q 176.73 33.73 176.81 36.75
  Q 176.88 39.30 177.99 37.67
  A 1.82 1.41 67.8 0 0 178.25 36.74
  Q 178.25 34.74 178.25 32.74
  Q 178.25 30.06 178.78 28.83
  Q 180.10 25.80 184.01 25.61
  Q 186.25 25.50 188.49 25.38
  Q 192.60 25.17 194.55 27.93
  Q 195.69 29.54 195.74 32.96
  Q 195.78 35.61 195.75 38.25
  Q 195.70 42.82 193.06 47.56
  Q 192.18 49.16 190.75 49.29
  Z
  M 193.19 36.94
  Q 193.18 41.03 191.45 45.44
  Q 190.95 46.69 191.56 46.42
  A 1.25 0.78 -81.5 0 0 192.11 45.77
  Q 194.31 40.26 193.88 34.31
  Q 193.78 33.04 193.81 31.69
  Q 193.84 30.37 193.73 29.06
  A 1.01 1.01 -76.0 0 0 193.27 28.29
  Q 190.21 26.35 192.36 28.70
  A 1.51 1.39 23.6 0 1 192.73 29.54
  Q 193.19 34.32 193.19 36.94
  Z
  M 174.26 38.07
  Q 174.36 36.54 173.68 35.13
  Q 173.44 34.64 173.36 35.17
  Q 172.45 41.59 176.03 46.91
  Q 176.32 47.33 176.14 46.85
  Q 175.07 43.93 174.33 40.93
  Q 174.13 40.10 174.26 38.07
  Z
  M 188.28 38.18
  A 3.05 3.05 0.0 0 0 185.23 35.13
  A 3.05 3.05 0.0 0 0 182.18 38.18
  A 3.05 3.05 0.0 0 0 185.23 41.23
  A 3.05 3.05 0.0 0 0 188.28 38.18
  Z"
/>
<path fill="#b7dce7" d="
  M 130.65 46.74
  Q 134.60 59.22 134.75 68.00
  Q 134.93 78.80 125.81 83.31
  Q 121.27 85.56 114.00 87.25
  Q 87.03 93.52 60.96 85.56
  Q 54.54 83.60 51.66 81.28
  Q 47.23 77.71 46.25 72.00
  Q 45.49 67.57 46.84 60.07
  Q 49.05 47.79 53.31 38.31
  Q 56.55 31.11 64.86 29.28
  Q 88.24 24.14 111.67 28.15
  Q 117.98 29.23 120.88 30.94
  Q 125.29 33.53 127.56 38.44
  Q 128.98 41.51 130.65 46.74
  Z
  M 80.83 32.93
  Q 76.71 34.46 72.50 34.96
  Q 62.95 34.86 59.56 43.31
  Q 55.60 53.19 54.36 64.06
  Q 53.77 69.21 54.73 71.88
  Q 56.23 76.04 60.69 77.81
  Q 69.18 81.19 81.06 82.69
  Q 79.00 83.10 77.02 83.07
  Q 76.42 83.06 74.58 82.54
  Q 73.31 82.19 71.98 82.40
  A 1.43 1.26 52.1 0 1 71.08 82.23
  Q 69.76 81.45 67.75 81.50
  Q 66.63 81.53 66.38 82.19
  A 0.63 0.50 21.3 0 0 66.78 82.88
  Q 89.52 92.00 113.19 83.19
  Q 114.91 82.55 114.60 81.27
  A 0.58 0.52 -11.0 0 0 113.95 80.88
  Q 112.43 81.12 109.56 82.06
  Q 105.20 83.50 99.50 82.96
  Q 106.17 81.45 112.92 80.33
  Q 114.53 80.06 116.07 79.38
  Q 117.59 78.71 119.13 78.09
  Q 122.20 76.85 123.45 75.73
  Q 127.21 72.39 126.76 66.75
  Q 125.83 55.39 121.77 44.86
  Q 119.86 39.92 117.53 37.95
  Q 114.22 35.14 109.29 35.25
  Q 107.46 34.14 105.40 34.11
  Q 102.96 34.07 102.15 33.85
  Q 100.55 33.40 99.00 32.79
  Q 102.37 32.32 105.53 33.23
  Q 106.51 33.51 107.64 33.45
  Q 108.74 33.40 109.83 33.57
  Q 112.30 33.97 111.05 32.66
  Q 110.73 32.32 110.20 32.16
  Q 91.20 26.17 71.25 32.00
  Q 70.00 32.37 69.67 33.21
  A 0.40 0.35 9.3 0 0 70.07 33.69
  Q 73.59 33.64 77.00 32.75
  Q 77.74 32.56 80.83 32.93
  Z
  M 53.38 80.63
  Q 53.96 81.10 54.92 81.38
  Q 56.06 81.71 55.33 80.78
  Q 51.06 75.39 50.73 68.88
  Q 50.55 65.24 52.23 56.67
  Q 54.19 46.68 58.31 37.31
  Q 59.03 35.67 62.58 32.27
  A 0.78 0.48 -41.1 0 0 62.83 31.45
  Q 62.61 31.16 62.00 31.50
  Q 57.43 34.00 55.05 38.23
  Q 53.92 40.26 51.73 46.98
  Q 49.37 54.23 48.45 61.80
  Q 47.57 68.99 47.99 71.69
  Q 48.81 76.96 53.38 80.63
  Z
  M 120.61 32.27
  A 2.76 2.75 67.4 0 0 118.75 31.50
  Q 117.24 31.47 118.34 32.38
  Q 121.56 35.01 123.21 38.63
  Q 123.48 39.22 125.72 45.98
  Q 129.10 56.21 130.00 65.50
  Q 130.81 73.87 125.37 80.92
  A 0.93 0.54 -47.0 0 0 125.17 81.79
  Q 125.38 82.14 126.00 81.75
  Q 133.68 76.93 132.97 67.25
  Q 132.27 57.59 129.47 48.39
  Q 127.49 41.89 126.33 39.69
  Q 124.36 35.92 120.61 32.27
  Z"
/>
<path fill="#264e80" d="
  M 193.19 36.94
  Q 193.19 34.32 192.73 29.54
  A 1.51 1.39 23.6 0 0 192.36 28.70
  Q 190.21 26.35 193.27 28.29
  A 1.01 1.01 -76.0 0 1 193.73 29.06
  Q 193.84 30.37 193.81 31.69
  Q 193.78 33.04 193.88 34.31
  Q 194.31 40.26 192.11 45.77
  A 1.25 0.78 -81.5 0 1 191.56 46.42
  Q 190.95 46.69 191.45 45.44
  Q 193.18 41.03 193.19 36.94
  Z"
/>
<path fill="#e7faff" d="
  M 99.00 32.79
  L 80.83 32.93
  Q 77.74 32.56 77.00 32.75
  Q 73.59 33.64 70.07 33.69
  A 0.40 0.35 9.3 0 1 69.67 33.21
  Q 70.00 32.37 71.25 32.00
  Q 91.20 26.17 110.20 32.16
  Q 110.73 32.32 111.05 32.66
  Q 112.30 33.97 109.83 33.57
  Q 108.74 33.40 107.64 33.45
  Q 106.51 33.51 105.53 33.23
  Q 102.37 32.32 99.00 32.79
  Z"
/>
<path fill="#153a65" d="
  M 43.50 29.21
  Q 45.95 35.41 45.30 42.00
  A 0.59 0.46 -83.4 0 1 44.76 42.55
  L 42.79 42.25
  L 43.50 29.21
  Z"
/>
<path fill="#8fbfcc" d="
  M 53.38 80.63
  Q 48.81 76.96 47.99 71.69
  Q 47.57 68.99 48.45 61.80
  Q 49.37 54.23 51.73 46.98
  Q 53.92 40.26 55.05 38.23
  Q 57.43 34.00 62.00 31.50
  Q 62.61 31.16 62.83 31.45
  A 0.78 0.48 -41.1 0 1 62.58 32.27
  Q 59.03 35.67 58.31 37.31
  Q 54.19 46.68 52.23 56.67
  Q 50.55 65.24 50.73 68.88
  Q 51.06 75.39 55.33 80.78
  Q 56.06 81.71 54.92 81.38
  Q 53.96 81.10 53.38 80.63
  Z"
/>
<path fill="#8fbfcc" d="
  M 120.61 32.27
  Q 124.36 35.92 126.33 39.69
  Q 127.49 41.89 129.47 48.39
  Q 132.27 57.59 132.97 67.25
  Q 133.68 76.93 126.00 81.75
  Q 125.38 82.14 125.17 81.79
  A 0.93 0.54 -47.0 0 1 125.37 80.92
  Q 130.81 73.87 130.00 65.50
  Q 129.10 56.21 125.72 45.98
  Q 123.48 39.22 123.21 38.63
  Q 121.56 35.01 118.34 32.38
  Q 117.24 31.47 118.75 31.50
  A 2.76 2.75 67.4 0 1 120.61 32.27
  Z"
/>
<path fill="#86b0be" d="
  M 99.00 32.79
  Q 100.55 33.40 102.15 33.85
  Q 102.96 34.07 105.40 34.11
  Q 107.46 34.14 109.29 35.25
  Q 108.20 35.66 107.00 35.54
  Q 91.39 33.50 75.75 35.29
  L 72.50 34.96
  Q 76.71 34.46 80.83 32.93
  L 99.00 32.79
  Z"
/>
<path fill="#041b38" d="
  M 107.00 35.54
  Q 110.39 36.34 113.73 37.32
  Q 117.41 38.39 119.00 41.90
  Q 124.59 54.22 125.50 67.75
  Q 125.74 71.33 123.51 73.92
  Q 121.97 75.71 118.32 77.10
  Q 111.05 79.87 103.39 80.90
  Q 96.33 81.86 88.09 81.68
  Q 79.16 81.49 70.06 79.44
  Q 65.52 78.41 61.60 76.69
  Q 57.85 75.03 56.55 72.49
  Q 55.02 69.52 55.50 65.50
  Q 56.75 54.99 59.76 46.70
  Q 61.47 41.97 62.30 40.75
  Q 64.23 37.90 68.00 37.00
  Q 71.86 36.08 75.75 35.29
  Q 91.39 33.50 107.00 35.54
  Z
  M 69.50 38.79
  Q 65.36 39.26 63.46 42.26
  Q 62.83 43.24 61.12 48.28
  Q 59.29 53.68 58.00 60.75
  Q 57.18 65.23 57.35 68.72
  Q 57.44 70.71 58.22 72.13
  Q 59.25 74.00 60.81 74.69
  Q 68.80 78.20 78.30 79.28
  Q 86.93 80.25 96.22 79.72
  Q 106.58 79.13 116.53 75.93
  Q 120.45 74.67 121.90 73.10
  Q 124.13 70.67 123.75 66.75
  Q 122.50 53.85 117.44 42.56
  Q 115.63 38.53 111.24 39.32
  Q 98.86 36.14 86.30 36.57
  Q 83.28 36.67 77.89 37.61
  Q 73.72 38.33 69.50 38.79
  Z"
/>
<path fill="#264e80" d="
  M 174.33 40.93
  Q 175.07 43.93 176.14 46.85
  Q 176.32 47.33 176.03 46.91
  Q 172.45 41.59 173.36 35.17
  Q 173.44 34.64 173.68 35.13
  Q 174.36 36.54 174.26 38.07
  Q 174.13 40.10 174.33 40.93
  Z"
/>
<path fill="#67919f" d="
  M 72.50 34.96
  L 75.75 35.29
  Q 71.86 36.08 68.00 37.00
  Q 64.23 37.90 62.30 40.75
  Q 61.47 41.97 59.76 46.70
  Q 56.75 54.99 55.50 65.50
  Q 55.02 69.52 56.55 72.49
  Q 57.85 75.03 61.60 76.69
  Q 65.52 78.41 70.06 79.44
  Q 79.16 81.49 88.09 81.68
  Q 96.33 81.86 103.39 80.90
  Q 111.05 79.87 118.32 77.10
  Q 121.97 75.71 123.51 73.92
  Q 125.74 71.33 125.50 67.75
  Q 124.59 54.22 119.00 41.90
  Q 117.41 38.39 113.73 37.32
  Q 110.39 36.34 107.00 35.54
  Q 108.20 35.66 109.29 35.25
  Q 114.22 35.14 117.53 37.95
  Q 119.86 39.92 121.77 44.86
  Q 125.83 55.39 126.76 66.75
  Q 127.21 72.39 123.45 75.73
  Q 122.20 76.85 119.13 78.09
  Q 117.59 78.71 116.07 79.38
  Q 114.53 80.06 112.92 80.33
  Q 106.17 81.45 99.50 82.96
  Q 99.27 83.17 99.00 83.21
  Q 92.24 82.31 85.50 83.21
  Q 83.18 83.63 81.06 82.69
  Q 69.18 81.19 60.69 77.81
  Q 56.23 76.04 54.73 71.88
  Q 53.77 69.21 54.36 64.06
  Q 55.60 53.19 59.56 43.31
  Q 62.95 34.86 72.50 34.96
  Z"
/>
<circle fill="#33fffe" cx="185.23" cy="38.18" r="3.05"/>
<path fill="#264e80" d="
  M 111.24 39.32
  Q 90.15 38.02 71.50 39.75
  Q 69.95 39.89 69.50 38.79
  Q 73.72 38.33 77.89 37.61
  Q 83.28 36.67 86.30 36.57
  Q 98.86 36.14 111.24 39.32
  Z"
/>
<path fill="#153a65" d="
  M 69.50 38.79
  Q 69.95 39.89 71.50 39.75
  Q 90.15 38.02 111.24 39.32
  Q 115.63 38.53 117.44 42.56
  Q 122.50 53.85 123.75 66.75
  Q 124.13 70.67 121.90 73.10
  Q 120.45 74.67 116.53 75.93
  Q 106.58 79.13 96.22 79.72
  Q 86.93 80.25 78.30 79.28
  Q 68.80 78.20 60.81 74.69
  Q 59.25 74.00 58.22 72.13
  Q 57.44 70.71 57.35 68.72
  Q 57.18 65.23 58.00 60.75
  Q 59.29 53.68 61.12 48.28
  Q 62.83 43.24 63.46 42.26
  Q 65.36 39.26 69.50 38.79
  Z
  M 78.53 46.98
  Q 75.26 44.59 72.69 47.19
  Q 69.45 50.46 70.23 55.44
  A 0.46 0.45 -11.3 0 0 70.80 55.81
  Q 75.76 54.52 81.95 54.50
  A 0.72 0.71 -7.1 0 0 82.64 53.62
  Q 81.62 49.23 78.53 46.98
  Z
  M 105.34 45.95
  Q 103.24 45.68 101.69 47.19
  Q 98.86 49.94 98.06 53.83
  A 0.69 0.69 1.7 0 0 98.84 54.65
  Q 103.70 53.92 109.41 56.00
  A 1.04 1.03 -76.2 0 0 110.79 55.16
  Q 111.35 50.90 108.38 47.68
  Q 106.99 46.17 105.34 45.95
  Z
  M 112.1224 61.4745
  A 5.81 2.26 14.6 0 0 107.0697 57.8230
  A 5.81 2.26 14.6 0 0 100.8776 58.5455
  A 5.81 2.26 14.6 0 0 105.9303 62.1970
  A 5.81 2.26 14.6 0 0 112.1224 61.4745
  Z
  M 79.17 57.97
  Q 73.84 56.30 70.39 59.31
  Q 67.01 62.25 71.48 62.50
  Q 76.64 62.78 79.62 59.77
  A 1.09 1.09 -59.1 0 0 79.17 57.97
  Z
  M 87.59 68.47
  Q 83.36 68.00 79.13 66.63
  Q 78.10 66.30 78.73 67.17
  Q 83.31 73.57 90.94 73.28
  Q 94.20 73.16 96.75 71.85
  Q 99.50 70.45 101.48 67.88
  Q 102.91 66.02 100.71 66.85
  Q 94.41 69.22 87.59 68.47
  Z"
/>
<path fill="#0c2641" d="
  M 40.44 42.66
  Q 41.13 52.84 40.56 63.13
  Q 36.96 61.33 36.17 57.73
  Q 35.60 55.08 35.77 51.26
  Q 36.00 46.06 40.44 42.66
  Z
  M 37.38 56.11
  Q 37.60 57.72 38.17 59.27
  A 0.35 0.28 76.2 0 0 38.49 59.52
  Q 38.70 59.49 38.67 59.26
  Q 37.95 53.35 38.71 47.30
  Q 38.79 46.59 38.45 47.21
  Q 36.86 50.08 37.02 52.89
  Q 37.07 53.80 37.38 56.11
  Z"
/>
<path fill="#2fe5e7" d="
  M 40.44 42.66
  Q 41.53 42.63 42.29 43.00
  L 42.21 44.00
  Q 41.69 48.12 42.21 52.25
  L 42.25 63.04
  Q 41.71 63.32 40.56 63.13
  Q 41.13 52.84 40.44 42.66
  Z"
/>
<path fill="#2fe5e7" d="
  M 138.50 42.79
  Q 139.34 42.53 140.04 43.00
  L 140.08 63.08
  Q 139.68 63.43 138.75 62.96
  L 138.71 49.00
  Q 139.39 46.73 138.75 44.46
  Q 138.91 43.56 138.50 42.79
  Z"
/>
<path fill="#0c2641" d="
  M 140.04 43.00
  Q 143.26 43.80 144.25 48.00
  Q 145.73 54.28 143.58 60.32
  Q 142.75 62.67 140.08 63.08
  L 140.04 43.00
  Z
  M 142.41 56.38
  Q 141.58 62.85 143.01 56.05
  Q 143.06 55.82 143.19 55.61
  Q 145.00 52.60 143.56 49.94
  Q 142.79 48.51 142.69 47.56
  Q 142.59 46.62 142.32 47.37
  Q 142.24 47.60 142.25 48.00
  Q 142.35 51.99 142.43 55.99
  Q 142.44 56.19 142.41 56.38
  Z"
/>
<path fill="#264e80" d="
  M 42.21 44.00
  L 47.31 44.41
  A 0.62 0.59 -0.4 0 1 47.88 44.94
  Q 48.46 49.90 42.89 48.98
  A 0.58 0.57 -85.4 0 0 42.23 49.56
  L 42.21 52.25
  Q 41.69 48.12 42.21 44.00
  Z"
/>
<path fill="#264e80" d="
  M 138.75 44.46
  Q 139.39 46.73 138.71 49.00
  L 132.75 48.79
  Q 131.97 47.64 131.79 46.25
  Q 132.59 43.84 134.77 44.05
  Q 136.62 44.22 136.74 44.22
  Q 137.75 44.25 138.75 44.46
  Z"
/>
<path fill="#33fffe" d="
  M 78.53 46.98
  Q 81.62 49.23 82.64 53.62
  A 0.72 0.71 -7.1 0 1 81.95 54.50
  Q 75.76 54.52 70.80 55.81
  A 0.46 0.45 -11.3 0 1 70.23 55.44
  Q 69.45 50.46 72.69 47.19
  Q 75.26 44.59 78.53 46.98
  Z
  M 77.56 47.94
  Q 74.90 46.44 73.39 48.46
  Q 72.27 49.96 72.96 51.82
  Q 74.16 55.01 78.23 53.38
  A 1.29 1.25 0.9 0 0 78.91 52.74
  Q 80.39 49.53 77.56 47.94
  Z"
/>
<path fill="#33fffe" d="
  M 108.38 47.68
  Q 111.35 50.90 110.79 55.16
  A 1.04 1.03 -76.2 0 1 109.41 56.00
  Q 103.70 53.92 98.84 54.65
  A 0.69 0.69 1.7 0 1 98.06 53.83
  Q 98.86 49.94 101.69 47.19
  Q 103.24 45.68 105.34 45.95
  Q 106.99 46.17 108.38 47.68
  Z
  M 104.25 53.46
  L 105.25 53.54
  Q 105.62 53.83 106.06 53.79
  Q 106.40 53.75 106.73 53.41
  Q 108.19 51.91 107.79 50.06
  Q 107.43 48.41 105.78 47.75
  Q 103.90 46.99 102.49 48.36
  Q 101.34 49.46 101.34 51.09
  Q 101.34 53.52 104.25 53.46
  Z"
/>
<path fill="#264e80" d="
  M 37.02 52.89
  Q 36.86 50.08 38.45 47.21
  Q 38.79 46.59 38.71 47.30
  Q 37.95 53.35 38.67 59.26
  Q 38.70 59.49 38.49 59.52
  A 0.35 0.28 76.2 0 1 38.17 59.27
  Q 37.60 57.72 37.38 56.11
  Q 37.07 53.80 37.02 52.89
  Z"
/>
<path fill="#153a65" d="
  M 142.43 55.99
  Q 142.35 51.99 142.25 48.00
  Q 142.24 47.60 142.32 47.37
  Q 142.59 46.62 142.69 47.56
  Q 142.79 48.51 143.56 49.94
  Q 145.00 52.60 143.19 55.61
  Q 143.06 55.82 143.01 56.05
  Q 141.58 62.85 142.41 56.38
  Q 142.44 56.19 142.43 55.99
  Z"
/>
<path fill="#0550e5" d="
  M 77.56 47.94
  Q 80.39 49.53 78.91 52.74
  A 1.29 1.25 0.9 0 1 78.23 53.38
  Q 74.16 55.01 72.96 51.82
  Q 72.27 49.96 73.39 48.46
  Q 74.90 46.44 77.56 47.94
  Z
  M 77.75 50.46
  Q 77.79 48.70 76.00 48.79
  Q 73.07 48.80 74.25 51.50
  Q 75.78 54.99 77.97 51.98
  Q 78.68 51.01 77.75 50.46
  Z"
/>
<path fill="#0550e5" d="
  M 105.25 53.54
  Q 107.90 52.13 106.29 49.75
  Q 106.12 48.69 105.00 49.04
  Q 101.76 48.41 103.02 51.21
  Q 103.55 52.39 104.25 53.46
  Q 101.34 53.52 101.34 51.09
  Q 101.34 49.46 102.49 48.36
  Q 103.90 46.99 105.78 47.75
  Q 107.43 48.41 107.79 50.06
  Q 108.19 51.91 106.73 53.41
  Q 106.40 53.75 106.06 53.79
  Q 105.62 53.83 105.25 53.54
  Z"
/>
<path fill="#041b38" d="
  M 76.00 48.79
  Q 75.44 51.73 77.75 50.46
  Q 78.68 51.01 77.97 51.98
  Q 75.78 54.99 74.25 51.50
  Q 73.07 48.80 76.00 48.79
  Z"
/>
<path fill="#86b0be" d="
  M 76.00 48.79
  Q 77.79 48.70 77.75 50.46
  Q 75.44 51.73 76.00 48.79
  Z"
/>
<path fill="#0c2641" d="
  M 105.00 49.04
  Q 104.72 52.44 106.29 49.75
  Q 107.90 52.13 105.25 53.54
  L 104.25 53.46
  Q 103.55 52.39 103.02 51.21
  Q 101.76 48.41 105.00 49.04
  Z"
/>
<path fill="#0f2b4f" d="
  M 132.75 48.79
  L 138.71 49.00
  L 138.75 62.96
  L 135.75 63.04
  L 132.75 48.79
  Z"
/>
<path fill="#86b0be" d="
  M 105.00 49.04
  Q 106.12 48.69 106.29 49.75
  Q 104.72 52.44 105.00 49.04
  Z"
/>
<path fill="#86b0be" d="
  M 176.47 49.58
  L 177.25 49.29
  Q 177.64 50.56 178.52 51.04
  Q 181.91 57.61 188.00 53.21
  L 190.71 49.75
  Q 189.94 52.09 189.24 54.45
  Q 188.58 56.68 188.17 59.25
  Q 187.06 66.25 186.01 73.26
  Q 185.95 73.66 185.90 76.76
  Q 185.87 78.59 185.04 80.25
  L 184.67 77.92
  Q 184.45 70.51 177.25 71.79
  Q 175.33 72.14 174.25 73.71
  Q 173.85 73.65 173.71 73.25
  Q 175.31 66.72 176.26 60.05
  Q 176.27 59.96 176.95 56.49
  Q 177.66 52.82 176.47 49.58
  Z
  M 184.14 69.95
  L 185.94 57.24
  A 0.49 0.48 7.5 0 0 185.51 56.69
  L 182.07 56.25
  Q 181.62 56.20 181.15 55.89
  Q 179.25 54.63 179.03 57.00
  Q 178.47 63.16 177.17 69.20
  A 0.37 0.37 4.1 0 0 177.56 69.65
  Q 181.79 69.38 184.38 72.54
  Q 184.73 72.96 184.82 72.46
  Q 185.01 71.51 184.42 70.79
  A 1.21 0.92 34.4 0 1 184.14 69.95
  Z"
/>
<path fill="#b7dce7" d="
  M 177.25 49.29
  L 190.75 49.29
  L 190.71 49.75
  L 188.00 53.21
  Q 187.93 52.57 187.44 52.35
  Q 187.14 52.22 186.57 52.39
  Q 182.36 53.68 178.52 51.04
  Q 177.64 50.56 177.25 49.29
  Z"
/>
<path fill="#d2edf6" d="
  M 188.00 53.21
  Q 181.91 57.61 178.52 51.04
  Q 182.36 53.68 186.57 52.39
  Q 187.14 52.22 187.44 52.35
  Q 187.93 52.57 188.00 53.21
  Z"
/>
<path fill="#b7dce7" d="
  M 184.42 70.79
  Q 185.01 71.51 184.82 72.46
  Q 184.73 72.96 184.38 72.54
  Q 181.79 69.38 177.56 69.65
  A 0.37 0.37 4.1 0 1 177.17 69.20
  Q 178.47 63.16 179.03 57.00
  Q 179.25 54.63 181.15 55.89
  Q 181.62 56.20 182.07 56.25
  L 185.51 56.69
  A 0.49 0.48 7.5 0 1 185.94 57.24
  L 184.14 69.95
  A 1.21 0.92 34.4 0 0 184.42 70.79
  Z"
/>
<ellipse fill="#264e80" cx="0.00" cy="0.00" transform="translate(106.50,60.01) rotate(14.6)" rx="5.81" ry="2.26"/>
<path fill="#264e80" d="
  M 79.17 57.97
  A 1.09 1.09 -59.1 0 1 79.62 59.77
  Q 76.64 62.78 71.48 62.50
  Q 67.01 62.25 70.39 59.31
  Q 73.84 56.30 79.17 57.97
  Z"
/>
<path fill="#33fffe" d="
  M 87.59 68.47
  Q 94.41 69.22 100.71 66.85
  Q 102.91 66.02 101.48 67.88
  Q 99.50 70.45 96.75 71.85
  Q 94.20 73.16 90.94 73.28
  Q 83.31 73.57 78.73 67.17
  Q 78.10 66.30 79.13 66.63
  Q 83.36 68.00 87.59 68.47
  Z"
/>
<path fill="#e7faff" d="
  M 184.67 77.92
  Q 182.67 74.94 179.61 73.52
  Q 179.53 73.48 178.35 73.19
  Q 177.36 72.94 177.25 71.79
  Q 184.45 70.51 184.67 77.92
  Z"
/>
<path fill="#b7dce7" d="
  M 177.25 71.79
  Q 177.36 72.94 178.35 73.19
  Q 179.53 73.48 179.61 73.52
  Q 182.67 74.94 184.67 77.92
  L 185.04 80.25
  L 184.96 81.00
  L 174.25 73.71
  Q 175.33 72.14 177.25 71.79
  Z"
/>
<path fill="#0f2b4f" d="
  M 173.71 73.25
  Q 173.85 73.65 174.25 73.71
  L 184.96 81.00
  Q 185.89 81.98 185.75 83.75
  Q 184.81 95.91 173.35 98.96
  Q 172.90 97.90 172.29 98.25
  L 162.50 91.46
  Q 162.23 90.71 160.97 90.29
  Q 160.06 78.44 170.69 73.44
  Q 172.27 72.69 173.71 73.25
  Z
  M 166.94 77.44
  Q 162.57 81.52 162.10 87.26
  Q 162.04 87.97 162.43 87.68
  Q 162.55 87.59 162.62 87.39
  Q 164.94 80.52 170.41 75.79
  A 0.55 0.43 -40.9 0 0 170.54 75.10
  Q 170.29 74.80 169.92 75.16
  Q 169.60 75.48 169.37 75.60
  Q 168.23 76.23 166.94 77.44
  Z
  M 178.93 86.18
  A 5.90 5.90 0.0 0 0 173.03 80.28
  A 5.90 5.90 0.0 0 0 167.13 86.18
  A 5.90 5.90 0.0 0 0 173.03 92.08
  A 5.90 5.90 0.0 0 0 178.93 86.18
  Z
  M 179.31 94.56
  Q 183.13 90.70 184.00 86.18
  Q 184.05 85.89 184.22 85.47
  Q 184.48 84.81 184.19 84.68
  A 0.66 0.43 -68.1 0 0 183.52 85.15
  Q 181.07 91.60 176.11 96.40
  Q 175.71 96.79 176.24 96.64
  Q 177.70 96.19 179.31 94.56
  Z"
/>
<path fill="#264e80" d="
  M 166.94 77.44
  Q 168.23 76.23 169.37 75.60
  Q 169.60 75.48 169.92 75.16
  Q 170.29 74.80 170.54 75.10
  A 0.55 0.43 -40.9 0 1 170.41 75.79
  Q 164.94 80.52 162.62 87.39
  Q 162.55 87.59 162.43 87.68
  Q 162.04 87.97 162.10 87.26
  Q 162.57 81.52 166.94 77.44
  Z"
/>
<path fill="#010307" d="
  M 178.93 86.18
  A 5.90 5.90 0.0 0 1 173.03 92.08
  A 5.90 5.90 0.0 0 1 167.13 86.18
  A 5.90 5.90 0.0 0 1 173.03 80.28
  A 5.90 5.90 0.0 0 1 178.93 86.18
  Z
  M 177.92 86.16
  A 4.83 4.83 0.0 0 0 173.09 81.33
  A 4.83 4.83 0.0 0 0 168.26 86.16
  A 4.83 4.83 0.0 0 0 173.09 90.99
  A 4.83 4.83 0.0 0 0 177.92 86.16
  Z"
/>
<path fill="#e7faff" d="
  M 81.06 82.69
  Q 83.18 83.63 85.50 83.21
  L 99.00 83.21
  Q 99.27 83.17 99.50 82.96
  Q 105.20 83.50 109.56 82.06
  Q 112.43 81.12 113.95 80.88
  A 0.58 0.52 -11.0 0 1 114.60 81.27
  Q 114.91 82.55 113.19 83.19
  Q 89.52 92.00 66.78 82.88
  A 0.63 0.50 21.3 0 1 66.38 82.19
  Q 66.63 81.53 67.75 81.50
  Q 69.76 81.45 71.08 82.23
  A 1.43 1.26 52.1 0 0 71.98 82.40
  Q 73.31 82.19 74.58 82.54
  Q 76.42 83.06 77.02 83.07
  Q 79.00 83.10 81.06 82.69
  Z"
/>
<circle fill="#33fffe" cx="173.09" cy="86.16" r="4.83"/>
<path fill="#a2cad7" d="
  M 99.00 83.21
  L 85.50 83.21
  Q 92.24 82.31 99.00 83.21
  Z"
/>
<path fill="#264e80" d="
  M 179.31 94.56
  Q 177.70 96.19 176.24 96.64
  Q 175.71 96.79 176.11 96.40
  Q 181.07 91.60 183.52 85.15
  A 0.66 0.43 -68.1 0 1 184.19 84.68
  Q 184.48 84.81 184.22 85.47
  Q 184.05 85.89 184.00 86.18
  Q 183.13 90.70 179.31 94.56
  Z"
/>
<path fill="#8fbfcc" d="
  M 128.75 91.71
  Q 90.95 103.61 53.23 91.58
  Q 56.45 89.25 60.11 88.27
  Q 62.31 87.68 65.39 88.37
  Q 91.75 94.21 117.98 87.58
  Q 118.50 87.45 119.02 87.59
  Q 124.92 89.21 128.75 91.71
  Z"
/>
<path fill="#86b0be" d="
  M 160.97 90.29
  Q 162.23 90.71 162.50 91.46
  Q 161.16 92.03 161.95 93.41
  Q 161.11 95.24 162.44 97.31
  Q 164.77 100.95 168.98 99.77
  Q 170.81 100.06 172.29 98.25
  Q 172.90 97.90 173.35 98.96
  Q 169.83 100.66 167.36 103.85
  Q 160.87 112.21 154.29 120.50
  L 154.21 119.00
  Q 155.37 116.94 157.04 115.29
  Q 158.80 113.54 159.60 111.23
  A 1.67 1.59 81.6 0 1 160.15 110.45
  Q 163.60 107.77 165.68 103.94
  Q 165.89 103.55 166.32 103.00
  Q 167.43 101.60 165.50 101.79
  Q 162.85 100.95 160.66 97.98
  Q 161.01 96.50 159.54 96.90
  A 1.68 1.17 -70.9 0 0 158.77 97.46
  L 149.50 109.54
  Q 148.92 109.57 148.50 109.21
  Q 153.81 101.95 159.43 94.93
  Q 161.10 92.84 160.97 90.29
  Z"
/>
<path fill="#b7dce7" d="
  M 53.23 91.58
  Q 90.95 103.61 128.75 91.71
  Q 136.24 94.34 137.50 101.75
  Q 138.02 104.79 137.50 108.70
  Q 136.83 113.77 136.81 113.97
  Q 136.03 121.02 133.75 132.00
  Q 129.56 152.12 119.44 166.94
  Q 116.29 171.54 110.92 174.16
  Q 106.89 176.12 100.54 177.50
  Q 83.73 181.14 68.31 172.44
  Q 64.45 170.26 60.90 164.14
  Q 48.01 141.96 45.29 116.38
  Q 45.26 116.06 45.04 116.31
  Q 44.63 116.78 44.67 115.50
  Q 44.78 111.25 44.37 107.01
  Q 43.28 95.81 53.23 91.58
  Z
  M 62.79 140.50
  L 64.00 143.04
  Q 64.87 145.58 66.96 146.83
  Q 68.41 147.70 71.36 147.64
  Q 90.75 147.27 110.14 147.63
  Q 113.65 147.70 115.44 146.44
  Q 118.92 144.00 118.69 138.81
  Q 118.41 132.72 118.62 118.19
  Q 118.68 113.49 114.75 111.29
  Q 113.81 111.18 113.29 110.65
  A 1.27 0.88 61.1 0 0 112.49 110.25
  L 93.75 110.21
  Q 105.27 109.04 109.50 109.75
  Q 111.50 110.09 111.75 108.79
  Q 117.37 108.66 119.50 113.25
  Q 121.56 117.71 120.50 123.50
  Q 120.03 126.08 120.75 140.00
  Q 120.77 140.37 121.06 140.47
  A 0.67 0.48 -64.0 0 0 121.73 140.11
  Q 123.87 136.28 123.75 130.25
  Q 123.60 122.74 124.00 115.27
  Q 124.15 112.43 126.18 110.94
  L 134.46 104.89
  Q 136.27 103.57 135.52 101.67
  Q 133.19 95.81 127.97 94.14
  A 0.89 0.86 -56.5 0 0 127.12 94.33
  Q 123.94 97.14 120.94 101.19
  Q 119.48 103.15 117.33 104.41
  Q 115.61 105.43 112.80 105.52
  Q 89.83 106.28 67.87 105.30
  Q 65.14 105.18 63.26 103.01
  L 56.25 94.93
  Q 54.94 93.42 53.18 94.49
  Q 48.09 97.58 46.87 102.06
  A 2.34 2.34 25.7 0 0 47.75 104.56
  Q 49.95 106.17 51.79 107.51
  Q 51.83 107.54 54.43 109.23
  Q 57.87 111.46 58.50 114.75
  Q 59.00 117.35 58.75 129.75
  Q 58.64 135.32 60.39 139.41
  Q 60.74 140.21 61.26 140.47
  Q 61.96 140.82 62.79 140.50
  Z
  M 87.56 168.19
  Q 73.16 166.76 63.14 155.34
  Q 56.20 147.42 52.05 137.73
  Q 51.87 137.32 51.56 137.16
  Q 51.01 136.89 51.19 137.54
  Q 55.04 151.72 62.86 164.16
  Q 67.71 171.87 76.94 174.56
  Q 92.27 179.04 106.61 174.08
  Q 110.52 172.73 113.36 170.54
  Q 116.66 167.99 118.69 164.94
  Q 126.46 153.21 130.66 137.98
  Q 130.88 137.17 130.75 136.98
  A 0.66 0.26 -61.9 0 0 130.12 137.51
  Q 126.19 146.41 120.04 153.67
  Q 113.34 161.56 106.01 165.06
  Q 97.40 169.17 87.56 168.19
  Z
  M 72.94 151.04
  Q 91.29 157.48 109.47 150.86
  A 0.69 0.56 -17.2 0 0 109.93 150.18
  Q 109.79 149.59 109.00 149.58
  Q 91.28 149.45 73.55 149.56
  Q 73.00 149.56 72.61 149.76
  Q 71.27 150.46 72.94 151.04
  Z"
/>
<path fill="#b7dce7" d="
  M 162.50 91.46
  L 172.29 98.25
  Q 170.81 100.06 168.98 99.77
  Q 164.56 97.51 161.95 93.41
  Q 161.16 92.03 162.50 91.46
  Z"
/>
<path fill="#d2edf6" d="
  M 161.95 93.41
  Q 164.56 97.51 168.98 99.77
  Q 164.77 100.95 162.44 97.31
  Q 161.11 95.24 161.95 93.41
  Z"
/>
<path fill="#e7faff" d="
  M 111.75 108.79
  Q 94.95 108.47 78.16 108.71
  Q 78.08 108.71 73.36 108.47
  Q 69.31 108.26 66.00 110.00
  Q 63.10 111.52 62.79 115.25
  L 62.79 140.50
  Q 61.96 140.82 61.26 140.47
  Q 60.74 140.21 60.39 139.41
  Q 58.64 135.32 58.75 129.75
  Q 59.00 117.35 58.50 114.75
  Q 57.87 111.46 54.43 109.23
  Q 51.83 107.54 51.79 107.51
  Q 49.95 106.17 47.75 104.56
  A 2.34 2.34 25.7 0 1 46.87 102.06
  Q 48.09 97.58 53.18 94.49
  Q 54.94 93.42 56.25 94.93
  L 63.26 103.01
  Q 65.14 105.18 67.87 105.30
  Q 89.83 106.28 112.80 105.52
  Q 115.61 105.43 117.33 104.41
  Q 119.48 103.15 120.94 101.19
  Q 123.94 97.14 127.12 94.33
  A 0.89 0.86 -56.5 0 1 127.97 94.14
  Q 133.19 95.81 135.52 101.67
  Q 136.27 103.57 134.46 104.89
  L 126.18 110.94
  Q 124.15 112.43 124.00 115.27
  Q 123.60 122.74 123.75 130.25
  Q 123.87 136.28 121.73 140.11
  A 0.67 0.48 -64.0 0 1 121.06 140.47
  Q 120.77 140.37 120.75 140.00
  Q 120.03 126.08 120.50 123.50
  Q 121.56 117.71 119.50 113.25
  Q 117.37 108.66 111.75 108.79
  Z"
/>
<path fill="#8fbfcc" d="
  M 160.66 97.98
  L 151.62 108.75
  A 0.97 0.96 -47.5 0 0 151.67 110.05
  Q 153.77 112.12 154.94 114.83
  A 0.44 0.43 51.7 0 0 155.69 114.93
  L 165.50 101.79
  Q 167.43 101.60 166.32 103.00
  Q 165.89 103.55 165.68 103.94
  Q 163.60 107.77 160.15 110.45
  A 1.67 1.59 81.6 0 0 159.60 111.23
  Q 158.80 113.54 157.04 115.29
  Q 155.37 116.94 154.21 119.00
  Q 153.63 119.61 153.54 120.50
  Q 154.00 115.63 151.21 111.75
  Q 150.80 110.26 149.50 109.54
  L 158.77 97.46
  A 1.68 1.17 -70.9 0 1 159.54 96.90
  Q 161.01 96.50 160.66 97.98
  Z"
/>
<path fill="#b7dce7" d="
  M 160.66 97.98
  Q 162.85 100.95 165.50 101.79
  L 155.69 114.93
  A 0.44 0.43 51.7 0 1 154.94 114.83
  Q 153.77 112.12 151.67 110.05
  A 0.97 0.96 -47.5 0 1 151.62 108.75
  L 160.66 97.98
  Z"
/>
<path fill="#0f2b4f" d="
  M 39.75 104.29
  L 39.00 127.71
  Q 37.47 127.87 36.69 125.55
  L 37.88 105.86
  Q 38.40 104.72 39.75 104.29
  Z"
/>
<path fill="#2fe5e7" d="
  M 39.75 104.29
  L 41.00 104.29
  L 40.25 127.96
  Q 39.54 128.17 39.00 127.71
  L 39.75 104.29
  Z"
/>
<path fill="#0f2b4f" d="
  M 41.00 104.29
  L 42.96 104.25
  L 45.96 128.00
  L 40.25 127.96
  L 41.00 104.29
  Z"
/>
<path fill="#0f2b4f" d="
  M 138.71 104.44
  L 144.50 106.04
  L 138.00 128.71
  Q 137.41 128.44 136.75 128.46
  Q 135.82 127.66 136.25 125.75
  Q 138.29 116.70 138.71 104.44
  Z
  M 141.40 112.50
  Q 142.67 110.99 142.96 109.28
  Q 143.53 105.87 140.51 105.96
  A 0.63 0.55 -0.2 0 0 139.90 106.49
  L 139.78 112.02
  Q 139.73 114.50 141.40 112.50
  Z"
/>
<path fill="#a2cad7" d="
  M 37.88 105.86
  L 36.69 125.55
  Q 31.47 134.33 28.20 143.92
  Q 28.07 144.30 28.06 145.10
  Q 28.05 145.73 27.75 146.29
  L 26.50 143.42
  Q 23.43 136.20 16.92 140.85
  L 15.04 141.75
  Q 15.81 140.26 16.85 138.94
  Q 18.04 137.43 18.59 136.15
  Q 22.36 127.19 26.36 118.32
  Q 26.91 117.10 27.89 113.35
  Q 29.75 106.22 37.88 105.86
  Z
  M 28.80 118.48
  Q 29.23 120.93 31.19 123.06
  Q 32.15 124.11 32.69 123.49
  A 0.86 0.62 53.6 0 0 32.68 122.62
  Q 30.81 119.36 30.53 115.68
  Q 30.38 113.60 31.32 112.00
  Q 32.11 110.65 33.56 108.81
  Q 34.29 107.89 33.33 107.96
  Q 33.03 107.98 32.72 108.17
  Q 29.57 110.17 28.91 113.51
  Q 28.39 116.12 28.80 118.48
  Z
  M 32.63 127.47
  Q 32.80 127.38 32.90 127.23
  A 0.94 0.57 45.8 0 0 32.70 126.35
  Q 30.64 123.71 27.75 122.06
  A 0.43 0.43 -63.7 0 0 27.14 122.27
  L 21.37 136.18
  A 0.90 0.87 -73.1 0 0 21.99 137.40
  Q 24.58 137.91 25.48 138.64
  A 1.44 1.40 31.2 0 0 27.68 138.13
  L 32.19 127.88
  A 0.96 0.55 -13.4 0 1 32.63 127.47
  Z"
/>
<path fill="#264e80" d="
  M 141.40 112.50
  Q 139.73 114.50 139.78 112.02
  L 139.90 106.49
  A 0.63 0.55 -0.2 0 1 140.51 105.96
  Q 143.53 105.87 142.96 109.28
  Q 142.67 110.99 141.40 112.50
  Z"
/>
<path fill="#2fe5e7" d="
  M 144.50 106.04
  Q 145.67 105.82 146.09 106.47
  Q 142.30 117.59 139.50 128.96
  Q 138.66 129.52 138.00 128.71
  L 144.50 106.04
  Z"
/>
<path fill="#0f2b4f" d="
  M 146.09 106.47
  Q 147.59 107.57 147.29 109.25
  Q 145.11 118.89 141.29 128.00
  Q 140.68 129.03 139.50 128.96
  Q 142.30 117.59 146.09 106.47
  Z"
/>
<path fill="#e7faff" d="
  M 28.91 113.51
  Q 29.57 110.17 32.72 108.17
  Q 33.03 107.98 33.33 107.96
  Q 34.29 107.89 33.56 108.81
  Q 32.11 110.65 31.32 112.00
  Q 30.38 113.60 30.53 115.68
  Q 30.81 119.36 32.68 122.62
  A 0.86 0.62 53.6 0 1 32.69 123.49
  Q 32.15 124.11 31.19 123.06
  Q 29.23 120.93 28.80 118.48
  Q 28.39 116.12 28.91 113.51
  Z"
/>
<path fill="#d2edf6" d="
  M 111.75 108.79
  Q 111.50 110.09 109.50 109.75
  Q 105.27 109.04 93.75 110.21
  Q 79.04 110.58 74.19 110.06
  Q 68.80 109.48 65.50 112.54
  Q 65.05 114.17 64.95 112.84
  A 0.24 0.22 79.6 0 0 64.66 112.62
  Q 64.28 112.75 64.12 113.07
  Q 64.01 113.28 64.08 113.93
  Q 64.22 115.22 62.79 115.25
  Q 63.10 111.52 66.00 110.00
  Q 69.31 108.26 73.36 108.47
  Q 78.08 108.71 78.16 108.71
  Q 94.95 108.47 111.75 108.79
  Z"
/>
<path fill="#b7dce7" d="
  M 147.29 109.25
  L 148.50 109.21
  Q 148.92 109.57 149.50 109.54
  Q 150.80 110.26 151.21 111.75
  Q 149.82 111.89 150.37 112.87
  Q 150.77 113.58 150.85 113.84
  Q 153.26 122.02 146.23 126.26
  Q 144.64 127.22 146.62 126.98
  Q 146.94 126.94 147.25 126.82
  Q 151.76 125.13 153.54 120.50
  Q 153.63 119.61 154.21 119.00
  L 154.29 120.50
  Q 151.04 129.73 141.29 128.00
  Q 145.11 118.89 147.29 109.25
  Z"
/>
<path fill="#67919f" d="
  M 93.75 110.21
  L 112.49 110.25
  A 1.27 0.88 61.1 0 1 113.29 110.65
  Q 113.81 111.18 114.75 111.29
  Q 114.32 111.63 113.75 111.54
  Q 94.30 110.84 74.84 111.22
  Q 74.78 111.22 72.18 111.12
  Q 68.40 110.97 65.54 113.50
  L 65.50 112.54
  Q 68.80 109.48 74.19 110.06
  Q 79.04 110.58 93.75 110.21
  Z"
/>
<path fill="#041b38" d="
  M 113.75 111.54
  Q 117.79 114.02 117.60 118.67
  Q 117.51 120.73 117.51 120.85
  Q 117.72 137.19 117.31 140.81
  Q 116.76 145.74 111.98 146.66
  Q 108.90 147.25 107.00 147.25
  Q 91.75 147.25 76.50 147.27
  Q 70.36 147.28 67.81 146.19
  Q 65.45 145.18 64.54 141.75
  Q 64.47 130.25 64.50 118.75
  Q 64.51 115.24 65.54 113.50
  Q 68.40 110.97 72.18 111.12
  Q 74.78 111.22 74.84 111.22
  Q 94.30 110.84 113.75 111.54
  Z
  M 115.6903 117.6769
  A 4.79 4.79 0.0 0 0 110.8919 112.8953
  L 71.0520 112.9648
  A 4.79 4.79 0.0 0 0 66.2704 117.7631
  L 66.3097 140.3031
  A 4.79 4.79 0.0 0 0 71.1081 145.0847
  L 110.9480 145.0152
  A 4.79 4.79 0.0 0 0 115.7296 140.2169
  L 115.6903 117.6769
  Z"
/>
<path fill="#67919f" d="
  M 114.75 111.29
  Q 118.68 113.49 118.62 118.19
  Q 118.41 132.72 118.69 138.81
  Q 118.92 144.00 115.44 146.44
  Q 113.65 147.70 110.14 147.63
  Q 90.75 147.27 71.36 147.64
  Q 68.41 147.70 66.96 146.83
  Q 64.87 145.58 64.00 143.04
  Q 64.80 142.70 64.54 141.75
  Q 65.45 145.18 67.81 146.19
  Q 70.36 147.28 76.50 147.27
  Q 91.75 147.25 107.00 147.25
  Q 108.90 147.25 111.98 146.66
  Q 116.76 145.74 117.31 140.81
  Q 117.72 137.19 117.51 120.85
  Q 117.51 120.73 117.60 118.67
  Q 117.79 114.02 113.75 111.54
  Q 114.32 111.63 114.75 111.29
  Z"
/>
<path fill="#e7faff" d="
  M 151.21 111.75
  Q 154.00 115.63 153.54 120.50
  Q 151.76 125.13 147.25 126.82
  Q 146.94 126.94 146.62 126.98
  Q 144.64 127.22 146.23 126.26
  Q 153.26 122.02 150.85 113.84
  Q 150.77 113.58 150.37 112.87
  Q 149.82 111.89 151.21 111.75
  Z"
/>
<path fill="#86b0be" d="
  M 65.50 112.54
  L 65.54 113.50
  Q 64.51 115.24 64.50 118.75
  Q 64.47 130.25 64.54 141.75
  Q 64.80 142.70 64.00 143.04
  L 62.79 140.50
  L 62.79 115.25
  Q 64.22 115.22 64.08 113.93
  Q 64.01 113.28 64.12 113.07
  Q 64.28 112.75 64.66 112.62
  A 0.24 0.22 79.6 0 1 64.95 112.84
  Q 65.05 114.17 65.50 112.54
  Z"
/>
<path fill="#153a65" d="
  M 115.7296 140.2169
  A 4.79 4.79 0.0 0 1 110.9480 145.0152
  L 71.1081 145.0847
  A 4.79 4.79 0.0 0 1 66.3097 140.3031
  L 66.2704 117.7631
  A 4.79 4.79 0.0 0 1 71.0520 112.9648
  L 110.8919 112.8953
  A 4.79 4.79 0.0 0 1 115.6903 117.6769
  L 115.7296 140.2169
  Z
  M 81.57 130.26
  L 86.79 130.35
  A 0.79 0.73 -89.3 0 1 87.50 131.14
  L 87.50 136.25
  A 0.80 0.73 -79.5 0 0 87.95 136.97
  Q 89.15 137.46 90.26 136.93
  A 0.83 0.76 78.0 0 0 90.70 136.18
  L 90.59 121.94
  A 0.80 0.80 -79.2 0 0 90.10 121.22
  Q 87.01 119.92 87.68 124.80
  Q 88.02 127.33 85.80 127.28
  L 81.78 127.19
  A 0.83 0.80 -89.3 0 1 81.00 126.36
  L 81.00 121.81
  A 0.71 0.71 -82.6 0 0 80.47 121.12
  Q 77.51 120.35 77.58 122.75
  Q 77.75 129.62 77.75 136.25
  A 0.40 0.40 7.5 0 0 78.05 136.64
  Q 81.42 137.48 81.24 135.73
  Q 80.98 133.28 81.04 130.82
  A 0.58 0.52 -88.4 0 1 81.57 130.26
  Z
  M 97.1778 122.5706
  A 1.50 1.40 7.3 0 0 95.8679 120.9913
  A 1.50 1.40 7.3 0 0 94.2022 122.1894
  A 1.50 1.40 7.3 0 0 95.5121 123.7687
  A 1.50 1.40 7.3 0 0 97.1778 122.5706
  Z
  M 101.85 132.62
  Q 102.61 133.06 103.07 132.82
  Q 103.42 132.63 103.49 131.91
  Q 103.88 127.96 104.47 124.03
  Q 105.05 120.20 101.68 120.91
  A 1.22 1.22 81.9 0 0 100.71 122.20
  L 101.48 132.04
  A 0.76 0.73 13.7 0 0 101.85 132.62
  Z
  M 97.25 125.96
  A 0.44 0.44 0.0 0 0 96.81 125.52
  L 94.69 125.52
  A 0.44 0.44 0.0 0 0 94.25 125.96
  L 94.25 136.58
  A 0.44 0.44 0.0 0 0 94.69 137.02
  L 96.81 137.02
  A 0.44 0.44 0.0 0 0 97.25 136.58
  L 97.25 125.96
  Z
  M 103.98 135.61
  A 1.48 1.48 0.0 0 0 102.50 134.13
  A 1.48 1.48 0.0 0 0 101.02 135.61
  A 1.48 1.48 0.0 0 0 102.50 137.09
  A 1.48 1.48 0.0 0 0 103.98 135.61
  Z"
/>
<path fill="#33fffe" d="
  M 81.04 130.82
  Q 80.98 133.28 81.24 135.73
  Q 81.42 137.48 78.05 136.64
  A 0.40 0.40 7.5 0 1 77.75 136.25
  Q 77.75 129.62 77.58 122.75
  Q 77.51 120.35 80.47 121.12
  A 0.71 0.71 -82.6 0 1 81.00 121.81
  L 81.00 126.36
  A 0.83 0.80 -89.3 0 0 81.78 127.19
  L 85.80 127.28
  Q 88.02 127.33 87.68 124.80
  Q 87.01 119.92 90.10 121.22
  A 0.80 0.80 -79.2 0 1 90.59 121.94
  L 90.70 136.18
  A 0.83 0.76 78.0 0 1 90.26 136.93
  Q 89.15 137.46 87.95 136.97
  A 0.80 0.73 -79.5 0 1 87.50 136.25
  L 87.50 131.14
  A 0.79 0.73 -89.3 0 0 86.79 130.35
  L 81.57 130.26
  A 0.58 0.52 -88.4 0 0 81.04 130.82
  Z"
/>
<ellipse fill="#33fffe" cx="0.00" cy="0.00" transform="translate(95.69,122.38) rotate(7.3)" rx="1.50" ry="1.40"/>
<path fill="#33fffe" d="
  M 101.85 132.62
  A 0.76 0.73 13.7 0 1 101.48 132.04
  L 100.71 122.20
  A 1.22 1.22 81.9 0 1 101.68 120.91
  Q 105.05 120.20 104.47 124.03
  Q 103.88 127.96 103.49 131.91
  Q 103.42 132.63 103.07 132.82
  Q 102.61 133.06 101.85 132.62
  Z"
/>
<path fill="#b7dce7" d="
  M 32.19 127.88
  L 27.68 138.13
  A 1.44 1.40 31.2 0 1 25.48 138.64
  Q 24.58 137.91 21.99 137.40
  A 0.90 0.87 -73.1 0 1 21.37 136.18
  L 27.14 122.27
  A 0.43 0.43 -63.7 0 1 27.75 122.06
  Q 30.64 123.71 32.70 126.35
  A 0.94 0.57 45.8 0 1 32.90 127.23
  Q 32.80 127.38 32.63 127.47
  A 0.96 0.55 -13.4 0 0 32.19 127.88
  Z"
/>
<rect fill="#33fffe" x="94.25" y="125.52" width="3.00" height="11.50" rx="0.44"/>
<circle fill="#33fffe" cx="102.50" cy="135.61" r="1.48"/>
<path fill="#8fbfcc" d="
  M 87.56 168.19
  Q 97.40 169.17 106.01 165.06
  Q 113.34 161.56 120.04 153.67
  Q 126.19 146.41 130.12 137.51
  A 0.66 0.26 -61.9 0 1 130.75 136.98
  Q 130.88 137.17 130.66 137.98
  Q 126.46 153.21 118.69 164.94
  Q 116.66 167.99 113.36 170.54
  Q 110.52 172.73 106.61 174.08
  Q 92.27 179.04 76.94 174.56
  Q 67.71 171.87 62.86 164.16
  Q 55.04 151.72 51.19 137.54
  Q 51.01 136.89 51.56 137.16
  Q 51.87 137.32 52.05 137.73
  Q 56.20 147.42 63.14 155.34
  Q 73.16 166.76 87.56 168.19
  Z"
/>
<path fill="#d2edf6" d="
  M 26.50 143.42
  Q 22.10 140.63 16.92 140.85
  Q 23.43 136.20 26.50 143.42
  Z"
/>
<path fill="#b7dce7" d="
  M 16.92 140.85
  Q 22.10 140.63 26.50 143.42
  L 27.75 146.29
  L 27.71 146.75
  L 14.50 142.21
  L 15.04 141.75
  L 16.92 140.85
  Z"
/>
<path fill="#0c2641" d="
  M 14.50 142.21
  L 27.71 146.75
  Q 28.86 147.86 29.00 148.50
  Q 31.24 158.89 23.31 165.81
  Q 22.00 166.96 20.50 166.96
  L 7.25 162.04
  Q 6.43 161.52 6.25 160.75
  Q 3.61 149.28 12.68 142.59
  Q 13.06 142.31 13.53 142.27
  Q 14.02 142.22 14.50 142.21
  Z
  M 8.43 154.58
  Q 9.23 149.64 12.15 145.58
  A 1.21 0.62 -45.4 0 0 12.43 144.70
  Q 12.31 144.21 11.54 144.80
  Q 9.08 146.72 8.19 149.73
  Q 6.97 153.85 6.82 158.16
  Q 6.81 158.48 6.92 158.69
  Q 7.16 159.15 7.48 158.91
  Q 7.67 158.76 7.75 158.40
  Q 8.12 156.50 8.43 154.58
  Z
  M 22.45 154.20
  A 4.81 4.81 0.0 0 0 17.64 149.39
  A 4.81 4.81 0.0 0 0 12.83 154.20
  A 4.81 4.81 0.0 0 0 17.64 159.01
  A 4.81 4.81 0.0 0 0 22.45 154.20
  Z
  M 27.33 151.90
  Q 25.95 157.84 22.90 163.65
  Q 22.80 163.84 22.81 163.99
  Q 22.83 164.45 23.29 164.03
  Q 28.45 159.18 28.25 151.99
  Q 28.15 148.38 27.33 151.90
  Z"
/>
<path fill="#264e80" d="
  M 8.43 154.58
  Q 8.12 156.50 7.75 158.40
  Q 7.67 158.76 7.48 158.91
  Q 7.16 159.15 6.92 158.69
  Q 6.81 158.48 6.82 158.16
  Q 6.97 153.85 8.19 149.73
  Q 9.08 146.72 11.54 144.80
  Q 12.31 144.21 12.43 144.70
  A 1.21 0.62 -45.4 0 1 12.15 145.58
  Q 9.23 149.64 8.43 154.58
  Z"
/>
<circle fill="#33fffe" cx="17.64" cy="154.20" r="4.81"/>
<path fill="#e7faff" d="
  M 72.94 151.04
  Q 71.27 150.46 72.61 149.76
  Q 73.00 149.56 73.55 149.56
  Q 91.28 149.45 109.00 149.58
  Q 109.79 149.59 109.93 150.18
  A 0.69 0.56 -17.2 0 1 109.47 150.86
  Q 91.29 157.48 72.94 151.04
  Z"
/>
<path fill="#264e80" d="
  M 27.33 151.90
  Q 28.15 148.38 28.25 151.99
  Q 28.45 159.18 23.29 164.03
  Q 22.83 164.45 22.81 163.99
  Q 22.80 163.84 22.90 163.65
  Q 25.95 157.84 27.33 151.90
  Z"
/>
<path fill="#b7dce7" d="
  M 7.25 162.04
  L 20.50 166.96
  Q 19.95 166.97 19.71 167.50
  Q 9.79 173.85 7.29 162.50
  L 7.25 162.04
  Z"
/>
<path fill="#86b0be" d="
  M 7.29 162.50
  Q 9.79 173.85 19.71 167.50
  Q 20.78 176.84 21.65 186.21
  Q 21.74 187.14 22.12 188.23
  Q 22.47 189.22 22.71 190.25
  Q 21.17 189.81 20.21 188.48
  A 1.77 1.25 73.8 0 0 19.47 187.89
  Q 11.00 184.91 10.50 194.04
  Q 10.00 194.44 9.64 194.20
  Q 10.10 178.25 7.29 162.50
  Z
  M 18.71 177.30
  Q 18.55 175.00 17.73 171.64
  A 0.77 0.77 -16.2 0 0 16.73 171.09
  Q 14.96 171.67 12.89 171.55
  Q 12.45 171.53 11.67 171.22
  Q 10.11 170.62 10.61 172.53
  A 1.72 1.59 49.1 0 1 10.58 173.46
  Q 9.49 176.63 10.73 179.55
  Q 11.58 181.55 11.68 182.65
  Q 11.83 184.41 11.82 185.95
  A 0.52 0.51 -12.1 0 0 12.55 186.42
  Q 16.08 184.78 18.98 185.76
  A 0.31 0.31 -83.5 0 0 19.39 185.43
  Q 19.00 181.37 18.71 177.30
  Z"
/>
<path fill="#b7dce7" d="
  M 18.71 177.30
  Q 19.00 181.37 19.39 185.43
  A 0.31 0.31 -83.5 0 1 18.98 185.76
  Q 16.08 184.78 12.55 186.42
  A 0.52 0.51 -12.1 0 1 11.82 185.95
  Q 11.83 184.41 11.68 182.65
  Q 11.58 181.55 10.73 179.55
  Q 9.49 176.63 10.58 173.46
  A 1.72 1.59 49.1 0 0 10.61 172.53
  Q 10.11 170.62 11.67 171.22
  Q 12.45 171.53 12.89 171.55
  Q 14.96 171.67 16.73 171.09
  A 0.77 0.77 -16.2 0 1 17.73 171.64
  Q 18.55 175.00 18.71 177.30
  Z"
/>
<path fill="#0f2b4f" d="
  M 116.40 172.85
  L 116.29 179.25
  Q 115.42 181.48 113.50 182.00
  Q 93.34 187.42 72.00 183.00
  Q 67.51 182.07 65.43 179.31
  Q 66.29 175.52 65.34 172.52
  Q 66.69 172.12 67.13 172.73
  Q 67.62 173.40 67.72 173.47
  Q 73.90 177.61 82.19 178.81
  Q 88.35 179.70 93.91 179.39
  Q 100.41 179.03 105.02 177.71
  Q 110.54 176.14 115.18 172.50
  A 0.70 0.52 39.6 0 1 115.91 172.54
  L 116.40 172.85
  Z"
/>
<path fill="#0ce1e8" d="
  M 65.43 179.31
  Q 67.51 182.07 72.00 183.00
  Q 93.34 187.42 113.50 182.00
  Q 115.42 181.48 116.29 179.25
  Q 117.20 180.70 116.21 182.25
  Q 110.20 184.46 108.94 184.69
  Q 91.22 187.88 73.50 184.77
  Q 69.88 184.14 66.77 182.27
  Q 66.35 182.02 66.05 182.06
  Q 65.41 182.14 65.73 182.97
  A 2.57 2.57 -89.2 0 0 67.19 184.43
  Q 71.50 186.12 75.66 186.80
  Q 77.95 187.18 84.34 187.72
  Q 99.14 188.95 113.00 185.25
  Q 114.97 184.72 116.46 182.75
  Q 117.04 184.22 116.11 185.31
  Q 111.24 187.32 108.75 187.75
  Q 95.09 190.11 79.75 188.75
  Q 71.87 188.05 65.79 185.00
  Q 65.29 184.39 65.25 183.25
  Q 65.15 180.51 65.43 179.31
  Z"
/>
<path fill="#0f2b4f" d="
  M 116.21 182.25
  Q 116.40 182.47 116.46 182.75
  Q 114.97 184.72 113.00 185.25
  Q 99.14 188.95 84.34 187.72
  Q 77.95 187.18 75.66 186.80
  Q 71.50 186.12 67.19 184.43
  A 2.57 2.57 86.4 0 1 65.73 182.97
  Q 65.41 182.14 66.05 182.06
  Q 66.35 182.02 66.77 182.27
  Q 69.88 184.14 73.50 184.77
  Q 91.22 187.88 108.94 184.69
  Q 110.20 184.46 116.21 182.25
  Z"
/>
<path fill="#0f2b4f" d="
  M 65.79 185.00
  Q 71.87 188.05 79.75 188.75
  Q 95.09 190.11 108.75 187.75
  Q 111.24 187.32 116.11 185.31
  Q 116.71 188.51 114.31 189.56
  Q 109.38 191.74 103.27 192.41
  Q 89.09 193.97 75.01 191.68
  Q 71.70 191.14 68.54 190.00
  Q 65.15 188.76 65.79 185.00
  Z"
/>
<path fill="#b7dce7" d="
  M 22.71 190.25
  L 22.75 190.71
  L 10.50 194.04
  Q 11.00 184.91 19.47 187.89
  A 1.77 1.25 73.8 0 1 20.21 188.48
  Q 21.17 189.81 22.71 190.25
  Z"
/>
<path fill="#0f2b4f" d="
  M 22.75 190.71
  Q 25.67 191.04 27.25 193.52
  Q 31.46 200.15 32.21 207.99
  A 1.14 0.92 69.9 0 1 31.91 208.87
  Q 31.28 209.46 30.47 209.41
  Q 29.82 209.37 29.26 208.70
  Q 27.09 206.11 26.30 202.80
  A 1.72 1.10 -87.1 0 0 25.82 201.96
  Q 25.06 201.32 24.87 202.28
  Q 24.80 202.63 24.95 203.08
  Q 25.94 205.92 26.31 208.88
  Q 26.62 211.34 25.71 212.97
  Q 24.50 215.12 22.19 215.69
  Q 20.04 216.21 17.89 216.73
  Q 15.16 217.39 13.57 217.00
  Q 10.75 216.30 9.59 213.67
  Q 9.29 212.99 8.16 208.99
  Q 6.49 203.10 7.75 196.75
  Q 8.09 195.06 9.64 194.20
  Q 10.00 194.44 10.50 194.04
  L 22.75 190.71
  Z
  M 24.44 193.11
  Q 27.35 197.80 28.78 201.85
  Q 28.84 202.02 29.00 203.19
  Q 29.12 204.08 29.95 204.34
  A 0.37 0.34 -85.1 0 0 30.39 203.94
  Q 29.69 196.94 24.71 192.88
  Q 23.87 192.19 24.44 193.11
  Z
  M 9.19 202.94
  Q 9.57 210.36 11.81 214.94
  Q 12.63 216.61 14.79 215.92
  Q 15.26 215.77 14.78 215.59
  Q 13.04 214.94 12.69 214.06
  Q 9.51 206.08 9.73 197.50
  Q 9.75 196.93 9.58 197.46
  Q 9.00 199.33 9.19 202.94
  Z
  M 20.83 203.74
  A 3.06 3.06 0.0 0 0 17.77 200.68
  A 3.06 3.06 0.0 0 0 14.71 203.74
  A 3.06 3.06 0.0 0 0 17.77 206.80
  A 3.06 3.06 0.0 0 0 20.83 203.74
  Z"
/>
<path fill="#264e80" d="
  M 24.44 193.11
  Q 23.87 192.19 24.71 192.88
  Q 29.69 196.94 30.39 203.94
  A 0.37 0.34 -85.1 0 1 29.95 204.34
  Q 29.12 204.08 29.00 203.19
  Q 28.84 202.02 28.78 201.85
  Q 27.35 197.80 24.44 193.11
  Z"
/>
<path fill="#33fffe" d="
  M 110.75 195.42
  A 1.30 1.30 -76.0 0 1 111.67 196.96
  Q 109.99 204.64 107.28 211.15
  Q 102.73 222.05 93.06 229.56
  Q 90.39 231.64 87.81 229.47
  Q 82.59 225.10 78.94 219.36
  Q 72.36 208.98 69.92 197.45
  Q 69.41 195.02 71.86 195.40
  Q 89.61 198.17 106.78 195.88
  Q 106.88 195.87 108.65 195.40
  Q 109.69 195.12 110.75 195.42
  Z"
/>
<path fill="#264e80" d="
  M 9.19 202.94
  Q 9.00 199.33 9.58 197.46
  Q 9.75 196.93 9.73 197.50
  Q 9.51 206.08 12.69 214.06
  Q 13.04 214.94 14.78 215.59
  Q 15.26 215.77 14.79 215.92
  Q 12.63 216.61 11.81 214.94
  Q 9.57 210.36 9.19 202.94
  Z"
/>
<circle fill="#33fffe" cx="17.77" cy="203.74" r="3.06"/>
</svg>
